G04 #@! TF.GenerationSoftware,KiCad,Pcbnew,5.0.0*
G04 #@! TF.CreationDate,2018-10-11T20:27:33+01:00*
G04 #@! TF.ProjectId,keyboard1,6B6579626F617264312E6B696361645F,rev?*
G04 #@! TF.SameCoordinates,Original*
G04 #@! TF.FileFunction,Legend,Top*
G04 #@! TF.FilePolarity,Positive*
%FSLAX46Y46*%
G04 Gerber Fmt 4.6, Leading zero omitted, Abs format (unit mm)*
G04 Created by KiCad (PCBNEW 5.0.0) date Thu Oct 11 20:27:33 2018*
%MOMM*%
%LPD*%
G01*
G04 APERTURE LIST*
%ADD10C,0.120000*%
%ADD11C,0.150000*%
G04 APERTURE END LIST*
D10*
G04 #@! TO.C,BT1*
X83690000Y-58700001D02*
X83690000Y-25580001D01*
X23980000Y-58700001D02*
X83690000Y-58700001D01*
X23980000Y-25580001D02*
X23980000Y-58700001D01*
X83690000Y-25580001D02*
X23980000Y-25580001D01*
X44295000Y-52175001D02*
X44295000Y-47095001D01*
X44295000Y-47095001D02*
X62075000Y-47095001D01*
X62075000Y-47095001D02*
X62075000Y-48365001D01*
X62075000Y-48365001D02*
X63345000Y-48365001D01*
X63345000Y-48365001D02*
X63345000Y-50905001D01*
X63345000Y-50905001D02*
X62075000Y-50905001D01*
X62075000Y-50905001D02*
X62075000Y-52175001D01*
X62075000Y-52175001D02*
X44295000Y-52175001D01*
X63345000Y-33375001D02*
X63345000Y-37185001D01*
X63345000Y-37185001D02*
X45565000Y-37185001D01*
X45565000Y-37185001D02*
X45565000Y-35915001D01*
X45565000Y-35915001D02*
X44295000Y-35915001D01*
X44295000Y-35915001D02*
X44295000Y-33375001D01*
X44295000Y-33375001D02*
X45565000Y-33375001D01*
X45565000Y-33375001D02*
X45565000Y-32105001D01*
X45565000Y-32105001D02*
X63345000Y-32105001D01*
X63345000Y-32105001D02*
X63345000Y-33375001D01*
X25250000Y-41886001D02*
X82420000Y-41886001D01*
X82420000Y-42394001D02*
X25250000Y-42394001D01*
X44295000Y-54890001D02*
X44295000Y-57430001D01*
X44295000Y-57430001D02*
X63345000Y-57430001D01*
X63345000Y-57430001D02*
X63345000Y-54890001D01*
X76045000Y-29390001D02*
X63345000Y-29390001D01*
X63345000Y-29390001D02*
X63345000Y-26850001D01*
X63345000Y-26850001D02*
X44295000Y-26850001D01*
X44295000Y-26850001D02*
X44295000Y-29390001D01*
X76045000Y-54890001D02*
X63345000Y-54890001D01*
X31595000Y-29390001D02*
X44295000Y-29390001D01*
X31595000Y-29390001D02*
X31595000Y-26850001D01*
X31595000Y-26850001D02*
X25250000Y-26850001D01*
X25250000Y-26850001D02*
X25250000Y-57430001D01*
X25250000Y-57430001D02*
X31595000Y-57430001D01*
X31595000Y-57430001D02*
X31595000Y-54890001D01*
X31595000Y-54890001D02*
X44295000Y-54890001D01*
X82420000Y-26850001D02*
X76045000Y-26850001D01*
X76045000Y-26850001D02*
X76045000Y-29390001D01*
X82420000Y-26850001D02*
X82420000Y-57430001D01*
X82420000Y-57430001D02*
X76045000Y-57430001D01*
X76045000Y-57430001D02*
X76045000Y-54890001D01*
G04 #@! TO.C,D1*
X87570000Y-50820000D02*
X97390000Y-50820000D01*
X97390000Y-50820000D02*
X97390000Y-45700000D01*
X97390000Y-45700000D02*
X87570000Y-45700000D01*
X87570000Y-45700000D02*
X87570000Y-50820000D01*
X87570000Y-50700000D02*
X97390000Y-50700000D01*
X87570000Y-50580000D02*
X97390000Y-50580000D01*
X87440000Y-49530000D02*
X87570000Y-49530000D01*
X87570000Y-49530000D02*
X87570000Y-49530000D01*
X87570000Y-49530000D02*
X87440000Y-49530000D01*
X87440000Y-49530000D02*
X87440000Y-49530000D01*
X87440000Y-46990000D02*
X87570000Y-46990000D01*
X87570000Y-46990000D02*
X87570000Y-46990000D01*
X87570000Y-46990000D02*
X87440000Y-46990000D01*
X87440000Y-46990000D02*
X87440000Y-46990000D01*
G04 #@! TO.C,R1*
X104240000Y-49530000D02*
G75*
G03X104240000Y-49530000I-1370000J0D01*
G01*
X102870000Y-48160000D02*
X102870000Y-48090000D01*
G04 #@! TO.C,SW1*
X88265000Y-41275000D02*
X88265000Y-27305000D01*
X88265000Y-27305000D02*
X102235000Y-27305000D01*
X102235000Y-27305000D02*
X102235000Y-41275000D01*
X102235000Y-41275000D02*
X88265000Y-41275000D01*
G04 #@! TO.C,BT1*
D11*
X25884285Y-24413572D02*
X26027142Y-24461191D01*
X26074761Y-24508810D01*
X26122380Y-24604048D01*
X26122380Y-24746905D01*
X26074761Y-24842143D01*
X26027142Y-24889762D01*
X25931904Y-24937381D01*
X25550952Y-24937381D01*
X25550952Y-23937381D01*
X25884285Y-23937381D01*
X25979523Y-23985001D01*
X26027142Y-24032620D01*
X26074761Y-24127858D01*
X26074761Y-24223096D01*
X26027142Y-24318334D01*
X25979523Y-24365953D01*
X25884285Y-24413572D01*
X25550952Y-24413572D01*
X26408095Y-23937381D02*
X26979523Y-23937381D01*
X26693809Y-24937381D02*
X26693809Y-23937381D01*
X27836666Y-24937381D02*
X27265238Y-24937381D01*
X27550952Y-24937381D02*
X27550952Y-23937381D01*
X27455714Y-24080239D01*
X27360476Y-24175477D01*
X27265238Y-24223096D01*
X64043571Y-34752143D02*
X65186428Y-34752143D01*
X42453571Y-34752143D02*
X43596428Y-34752143D01*
X43025000Y-35323572D02*
X43025000Y-34180715D01*
X64043571Y-49742143D02*
X65186428Y-49742143D01*
X64615000Y-50313572D02*
X64615000Y-49170715D01*
X42453571Y-49742143D02*
X43596428Y-49742143D01*
X22288571Y-34752143D02*
X23431428Y-34752143D01*
X22860000Y-35323572D02*
X22860000Y-34180715D01*
X22288571Y-49742143D02*
X23431428Y-49742143D01*
G04 #@! TO.C,D1*
X84852380Y-48998095D02*
X83852380Y-48998095D01*
X83852380Y-48760000D01*
X83900000Y-48617142D01*
X83995238Y-48521904D01*
X84090476Y-48474285D01*
X84280952Y-48426666D01*
X84423809Y-48426666D01*
X84614285Y-48474285D01*
X84709523Y-48521904D01*
X84804761Y-48617142D01*
X84852380Y-48760000D01*
X84852380Y-48998095D01*
X84852380Y-47474285D02*
X84852380Y-48045714D01*
X84852380Y-47760000D02*
X83852380Y-47760000D01*
X83995238Y-47855238D01*
X84090476Y-47950476D01*
X84138095Y-48045714D01*
G04 #@! TO.C,R1*
X100952380Y-48426666D02*
X100476190Y-48760000D01*
X100952380Y-48998095D02*
X99952380Y-48998095D01*
X99952380Y-48617142D01*
X100000000Y-48521904D01*
X100047619Y-48474285D01*
X100142857Y-48426666D01*
X100285714Y-48426666D01*
X100380952Y-48474285D01*
X100428571Y-48521904D01*
X100476190Y-48617142D01*
X100476190Y-48998095D01*
X100952380Y-47474285D02*
X100952380Y-48045714D01*
X100952380Y-47760000D02*
X99952380Y-47760000D01*
X100095238Y-47855238D01*
X100190476Y-47950476D01*
X100238095Y-48045714D01*
G04 #@! TO.C,SW1*
X87780761Y-35623333D02*
X87828380Y-35480476D01*
X87828380Y-35242380D01*
X87780761Y-35147142D01*
X87733142Y-35099523D01*
X87637904Y-35051904D01*
X87542666Y-35051904D01*
X87447428Y-35099523D01*
X87399809Y-35147142D01*
X87352190Y-35242380D01*
X87304571Y-35432857D01*
X87256952Y-35528095D01*
X87209333Y-35575714D01*
X87114095Y-35623333D01*
X87018857Y-35623333D01*
X86923619Y-35575714D01*
X86876000Y-35528095D01*
X86828380Y-35432857D01*
X86828380Y-35194761D01*
X86876000Y-35051904D01*
X86828380Y-34718571D02*
X87828380Y-34480476D01*
X87114095Y-34290000D01*
X87828380Y-34099523D01*
X86828380Y-33861428D01*
X87828380Y-32956666D02*
X87828380Y-33528095D01*
X87828380Y-33242380D02*
X86828380Y-33242380D01*
X86971238Y-33337619D01*
X87066476Y-33432857D01*
X87114095Y-33528095D01*
G04 #@! TD*
M02*
