<?xml version="1.0" standalone="no"?>
 <!DOCTYPE svg PUBLIC "-//W3C//DTD SVG 1.1//EN" 
 "http://www.w3.org/Graphics/SVG/1.1/DTD/svg11.dtd"> 
<svg xmlns="http://www.w3.org/2000/svg" version="1.1" 
    width="41.9989cm" height="29.7002cm" viewBox="0 0 165350 116930 ">
<title>SVG Picture created as keyboard1-F.SilkS.svg date 2019/02/10 16:03:45 </title>
  <desc>Picture generated by PCBNEW </desc>
<g style="fill:#000000; fill-opacity:1;stroke:#000000; stroke-opacity:1;
stroke-linecap:round; stroke-linejoin:round; "
 transform="translate(0 0) scale(1 1)">
</g>
<g style="fill:#000000; fill-opacity:0.0; 
stroke:#000000; stroke-width:-0.000393701; stroke-opacity:1; 
stroke-linecap:round; stroke-linejoin:round;">
</g>
<g style="fill:#000000; fill-opacity:0.0; 
stroke:#000000; stroke-width:47.2441; stroke-opacity:1; 
stroke-linecap:round; stroke-linejoin:round;">
<path d="M106207 37750
L106207 32250
" />
<path d="M111707 37750
L106207 37750
" />
<path d="M111707 32250
L111707 37750
" />
<path d="M106207 32250
L111707 32250
" />
<path d="M74723 37750
L74723 32250
" />
<path d="M80223 37750
L74723 37750
" />
<path d="M80223 32250
L80223 37750
" />
<path d="M74723 32250
L80223 32250
" />
<path d="M66851 37750
L66851 32250
" />
<path d="M72351 37750
L66851 37750
" />
<path d="M72351 32250
L72351 37750
" />
<path d="M66851 32250
L72351 32250
" />
<path d="M35367 37750
L35367 32250
" />
<path d="M40867 37750
L35367 37750
" />
<path d="M40867 32250
L40867 37750
" />
<path d="M35367 32250
L40867 32250
" />
<path d="M51109 37750
L51109 32250
" />
<path d="M56609 37750
L51109 37750
" />
<path d="M56609 32250
L56609 37750
" />
<path d="M51109 32250
L56609 32250
" />
<path d="M17750 32250
L23250 32250
" />
<path d="M23250 32250
L23250 37750
" />
<path d="M23250 37750
L17750 37750
" />
<path d="M17750 37750
L17750 32250
" />
<path d="M98336 37750
L98336 32250
" />
<path d="M103836 37750
L98336 37750
" />
<path d="M103836 32250
L103836 37750
" />
<path d="M98336 32250
L103836 32250
" />
<path d="M123825 37750
L123825 32250
" />
<path d="M129325 37750
L123825 37750
" />
<path d="M129325 32250
L129325 37750
" />
<path d="M123825 32250
L129325 32250
" />
<path d="M43238 37750
L43238 32250
" />
<path d="M48738 37750
L43238 37750
" />
<path d="M48738 32250
L48738 37750
" />
<path d="M43238 32250
L48738 32250
" />
<path d="M114078 32250
L119578 32250
" />
<path d="M119578 32250
L119578 37750
" />
<path d="M119578 37750
L114078 37750
" />
<path d="M114078 37750
L114078 32250
" />
<path d="M27496 32250
L32996 32250
" />
<path d="M32996 32250
L32996 37750
" />
<path d="M32996 37750
L27496 37750
" />
<path d="M27496 37750
L27496 32250
" />
<path d="M58980 37750
L58980 32250
" />
<path d="M64480 37750
L58980 37750
" />
<path d="M64480 32250
L64480 37750
" />
<path d="M58980 32250
L64480 32250
" />
<path d="M90465 37750
L90465 32250
" />
<path d="M95965 37750
L90465 37750
" />
<path d="M95965 32250
L95965 37750
" />
<path d="M90465 32250
L95965 32250
" />
<path d="M82594 37750
L82594 32250
" />
<path d="M88094 37750
L82594 37750
" />
<path d="M88094 32250
L88094 37750
" />
<path d="M82594 32250
L88094 32250
" />
<path d="M121950 24350
L127450 24350
" />
<path d="M127450 24350
L127450 29850
" />
<path d="M127450 29850
L121950 29850
" />
<path d="M121950 29850
L121950 24350
" />
<path d="M88512 48050
L94012 48050
" />
<path d="M94012 48050
L94012 53550
" />
<path d="M94012 53550
L88512 53550
" />
<path d="M88512 53550
L88512 48050
" />
<path d="M96412 48050
L101912 48050
" />
<path d="M101912 48050
L101912 53550
" />
<path d="M101912 53550
L96412 53550
" />
<path d="M96412 53550
L96412 48050
" />
<path d="M108462 45650
L108462 40150
" />
<path d="M113962 45650
L108462 45650
" />
<path d="M113962 40150
L113962 45650
" />
<path d="M108462 40150
L113962 40150
" />
<path d="M102453 29850
L102453 24350
" />
<path d="M107953 29850
L102453 29850
" />
<path d="M107953 24350
L107953 29850
" />
<path d="M102453 24350
L107953 24350
" />
<path d="M104312 53550
L104312 48050
" />
<path d="M109812 53550
L104312 53550
" />
<path d="M109812 48050
L109812 53550
" />
<path d="M104312 48050
L109812 48050
" />
<path d="M100562 40150
L106062 40150
" />
<path d="M106062 40150
L106062 45650
" />
<path d="M106062 45650
L100562 45650
" />
<path d="M100562 45650
L100562 40150
" />
<path d="M110326 24350
L115826 24350
" />
<path d="M115826 24350
L115826 29850
" />
<path d="M115826 29850
L110326 29850
" />
<path d="M110326 29850
L110326 24350
" />
<path d="M29462 45650
L29462 40150
" />
<path d="M34962 45650
L29462 45650
" />
<path d="M34962 40150
L34962 45650
" />
<path d="M29462 40150
L34962 40150
" />
<path d="M36550 55950
L42050 55950
" />
<path d="M42050 55950
L42050 61450
" />
<path d="M42050 61450
L36550 61450
" />
<path d="M36550 61450
L36550 55950
" />
<path d="M93725 55950
L99225 55950
" />
<path d="M99225 55950
L99225 61450
" />
<path d="M99225 61450
L93725 61450
" />
<path d="M93725 61450
L93725 55950
" />
<path d="M110587 55950
L116087 55950
" />
<path d="M116087 55950
L116087 61450
" />
<path d="M116087 61450
L110587 61450
" />
<path d="M110587 61450
L110587 55950
" />
<path d="M102625 55950
L108125 55950
" />
<path d="M108125 55950
L108125 61450
" />
<path d="M108125 61450
L102625 61450
" />
<path d="M102625 61450
L102625 55950
" />
<path d="M118550 55950
L124050 55950
" />
<path d="M124050 55950
L124050 61450
" />
<path d="M124050 61450
L118550 61450
" />
<path d="M118550 61450
L118550 55950
" />
<path d="M112212 53550
L112212 48050
" />
<path d="M117712 53550
L112212 53550
" />
<path d="M117712 48050
L117712 53550
" />
<path d="M112212 48050
L117712 48050
" />
<path d="M64812 48050
L70312 48050
" />
<path d="M70312 48050
L70312 53550
" />
<path d="M70312 53550
L64812 53550
" />
<path d="M64812 53550
L64812 48050
" />
<path d="M57973 18816
L58447 18816
" />
<path d="M57973 19533
L58447 19533
" />
<path d="M49012 48050
L54512 48050
" />
<path d="M54512 48050
L54512 53550
" />
<path d="M54512 53550
L49012 53550
" />
<path d="M49012 53550
L49012 48050
" />
<path d="M29337 21658
L28862 21658
" />
<path d="M29337 20941
L28862 20941
" />
<path d="M58362 21716
L57887 21716
" />
<path d="M58362 22433
L57887 22433
" />
<path d="M16875 61450
L16875 55950
" />
<path d="M22375 61450
L16875 61450
" />
<path d="M22375 55950
L22375 61450
" />
<path d="M16875 55950
L22375 55950
" />
<path d="M45262 45650
L45262 40150
" />
<path d="M50762 45650
L45262 45650
" />
<path d="M50762 40150
L50762 45650
" />
<path d="M45262 40150
L50762 40150
" />
<path d="M121050 40150
L126550 40150
" />
<path d="M126550 40150
L126550 45650
" />
<path d="M126550 45650
L121050 45650
" />
<path d="M121050 45650
L121050 40150
" />
<path d="M15850 24350
L21350 24350
" />
<path d="M21350 24350
L21350 29850
" />
<path d="M21350 29850
L15850 29850
" />
<path d="M15850 29850
L15850 24350
" />
<path d="M53162 45650
L53162 40150
" />
<path d="M58662 45650
L53162 45650
" />
<path d="M58662 40150
L58662 45650
" />
<path d="M53162 40150
L58662 40150
" />
<path d="M18750 45650
L18750 40150
" />
<path d="M24250 45650
L18750 45650
" />
<path d="M24250 40150
L24250 45650
" />
<path d="M18750 40150
L24250 40150
" />
<path d="M61062 40150
L66562 40150
" />
<path d="M66562 40150
L66562 45650
" />
<path d="M66562 45650
L61062 45650
" />
<path d="M61062 45650
L61062 40150
" />
<path d="M68962 40150
L74462 40150
" />
<path d="M74462 40150
L74462 45650
" />
<path d="M74462 45650
L68962 45650
" />
<path d="M68962 45650
L68962 40150
" />
<path d="M22400 18873
L22549 18873
" />
<path d="M22400 17278
L22400 17176
" />
<path d="M22400 18873
L22400 18176
" />
<path d="M25400 18873
L25250 18873
" />
<path d="M25400 18176
L25400 18873
" />
<path d="M25400 17176
L25400 17278
" />
<path d="M76862 40150
L82362 40150
" />
<path d="M82362 40150
L82362 45650
" />
<path d="M82362 45650
L76862 45650
" />
<path d="M76862 45650
L76862 40150
" />
<path d="M84762 40150
L90262 40150
" />
<path d="M90262 40150
L90262 45650
" />
<path d="M90262 45650
L84762 45650
" />
<path d="M84762 45650
L84762 40150
" />
<path d="M92662 40150
L98162 40150
" />
<path d="M98162 40150
L98162 45650
" />
<path d="M98162 45650
L92662 45650
" />
<path d="M92662 45650
L92662 40150
" />
<path d="M80612 48050
L86112 48050
" />
<path d="M86112 48050
L86112 53550
" />
<path d="M86112 53550
L80612 53550
" />
<path d="M80612 53550
L80612 48050
" />
<path d="M72712 48050
L78212 48050
" />
<path d="M78212 48050
L78212 53550
" />
<path d="M78212 53550
L72712 53550
" />
<path d="M72712 53550
L72712 48050
" />
<path d="M23723 29850
L23723 24350
" />
<path d="M29223 29850
L23723 29850
" />
<path d="M29223 24350
L29223 29850
" />
<path d="M23723 24350
L29223 24350
" />
<path d="M31596 24350
L37096 24350
" />
<path d="M37096 24350
L37096 29850
" />
<path d="M37096 29850
L31596 29850
" />
<path d="M31596 29850
L31596 24350
" />
<path d="M39469 29850
L39469 24350
" />
<path d="M44969 29850
L39469 29850
" />
<path d="M44969 24350
L44969 29850
" />
<path d="M39469 24350
L44969 24350
" />
<path d="M47342 24350
L52842 24350
" />
<path d="M52842 24350
L52842 29850
" />
<path d="M52842 29850
L47342 29850
" />
<path d="M47342 29850
L47342 24350
" />
<path d="M55215 29850
L55215 24350
" />
<path d="M60715 29850
L55215 29850
" />
<path d="M60715 24350
L60715 29850
" />
<path d="M55215 24350
L60715 24350
" />
<path d="M63088 29850
L63088 24350
" />
<path d="M68588 29850
L63088 29850
" />
<path d="M68588 24350
L68588 29850
" />
<path d="M63088 24350
L68588 24350
" />
<path d="M70961 29850
L70961 24350
" />
<path d="M76461 29850
L70961 29850
" />
<path d="M76461 24350
L76461 29850
" />
<path d="M70961 24350
L76461 24350
" />
<path d="M78834 29850
L78834 24350
" />
<path d="M84334 29850
L78834 29850
" />
<path d="M84334 24350
L84334 29850
" />
<path d="M78834 24350
L84334 24350
" />
<path d="M86707 24350
L92207 24350
" />
<path d="M92207 24350
L92207 29850
" />
<path d="M92207 29850
L86707 29850
" />
<path d="M86707 29850
L86707 24350
" />
<path d="M94580 24350
L100080 24350
" />
<path d="M100080 24350
L100080 29850
" />
<path d="M100080 29850
L94580 29850
" />
<path d="M94580 29850
L94580 24350
" />
<path d="M122939 19912
L122809 19912
" />
<path d="M122939 22487
L122939 19912
" />
<path d="M122809 22487
L122939 22487
" />
<path d="M121860 19912
L121990 19912
" />
<path d="M121860 22487
L121860 19912
" />
<path d="M121990 22487
L121860 22487
" />
<path d="M127340 22437
L127210 22437
" />
<path d="M127210 22437
L127210 19862
" />
<path d="M127210 19862
L127340 19862
" />
<path d="M128159 22437
L128289 22437
" />
<path d="M128289 22437
L128289 19862
" />
<path d="M128289 19862
L128159 19862
" />
<path d="M123812 17610
L123812 17740
" />
<path d="M126387 17610
L123812 17610
" />
<path d="M126387 17740
L126387 17610
" />
<path d="M123812 18689
L123812 18559
" />
<path d="M126387 18689
L123812 18689
" />
<path d="M126387 18559
L126387 18689
" />
<path d="M30427 20289
L30427 20419
" />
<path d="M30427 20419
L27852 20419
" />
<path d="M27852 20419
L27852 20289
" />
<path d="M30427 19470
L30427 19340
" />
<path d="M30427 19340
L27852 19340
" />
<path d="M27852 19340
L27852 19470
" />
<path d="M30427 18669
L30427 18799
" />
<path d="M30427 18799
L27852 18799
" />
<path d="M27852 18799
L27852 18669
" />
<path d="M30427 17850
L30427 17720
" />
<path d="M30427 17720
L27852 17720
" />
<path d="M27852 17720
L27852 17850
" />
<path d="M63290 21487
L63160 21487
" />
<path d="M63160 21487
L63160 18912
" />
<path d="M63160 18912
L63290 18912
" />
<path d="M64109 21487
L64239 21487
" />
<path d="M64239 21487
L64239 18912
" />
<path d="M64239 18912
L64109 18912
" />
<path d="M49289 18912
L49159 18912
" />
<path d="M49289 21487
L49289 18912
" />
<path d="M49159 21487
L49289 21487
" />
<path d="M48210 18912
L48340 18912
" />
<path d="M48210 21487
L48210 18912
" />
<path d="M48340 21487
L48210 21487
" />
<path d="M125526 22047.6 A1177.17 1177.17 0.0 0 0 125708 19942.1 " />
<path d="M124492 19942.1 A1177.17 1177.17 0.0 0 0 124674 22047.6 " />
<path d="M125525 21837.6 A984.252 984.252 0.0 0 0 125525 20062.3 " />
<path d="M124675 20062.3 A984.252 984.252 0.0 0 0 124675 21837.6 " />
<path d="M125708 19942
L125525 19942
" />
<path d="M124674 19942
L124491 19942
" />
<path d="M37362 45650
L37362 40150
" />
<path d="M42862 45650
L37362 45650
" />
<path d="M42862 40150
L42862 45650
" />
<path d="M37362 40150
L42862 40150
" />
<path d="M20625 53550
L20625 48050
" />
<path d="M26125 53550
L20625 53550
" />
<path d="M26125 48050
L26125 53550
" />
<path d="M20625 48050
L26125 48050
" />
<path d="M122925 48050
L128425 48050
" />
<path d="M128425 48050
L128425 53550
" />
<path d="M128425 53550
L122925 53550
" />
<path d="M122925 53550
L122925 48050
" />
<path d="M65137 55950
L70637 55950
" />
<path d="M70637 55950
L70637 61450
" />
<path d="M70637 61450
L65137 61450
" />
<path d="M65137 61450
L65137 55950
" />
<path d="M26712 61450
L26712 55950
" />
<path d="M32212 61450
L26712 61450
" />
<path d="M32212 55950
L32212 61450
" />
<path d="M26712 55950
L32212 55950
" />
<path d="M65334 19314
L65334 21085
" />
<path d="M66909 18822
L66318 18822
" />
<path d="M67893 21085
L67893 19314
" />
<path d="M66318 21577
L66909 21577
" />
</g>
<g style="fill:#000000; fill-opacity:0.0; 
stroke:#000000; stroke-width:59.0551; stroke-opacity:1; 
stroke-linecap:round; stroke-linejoin:round;">
<path d="M52087 22312
L52313 22312
" />
<path d="M52087 18237
L52353 18237
" />
<path d="M56162 18237
L55896 18237
" />
<path d="M56162 22312
L55896 22312
" />
<path d="M52087 22312
L52087 22046
" />
<path d="M56162 22312
L56162 22046
" />
<path d="M56162 18237
L56162 18503
" />
<path d="M52087 18237
L52087 18503
" />
<path d="M52313 22312
L52313 22814
" />
</g>
<g style="fill:#000000; fill-opacity:0.0; 
stroke:#000000; stroke-width:47.2441; stroke-opacity:1; 
stroke-linecap:round; stroke-linejoin:round;">
<path d="M56912 48050
L62412 48050
" />
<path d="M62412 48050
L62412 53550
" />
<path d="M62412 53550
L56912 53550
" />
<path d="M56912 53550
L56912 48050
" />
<path d="M41112 53550
L41112 48050
" />
<path d="M46612 53550
L41112 53550
" />
<path d="M46612 48050
L46612 53550
" />
<path d="M41112 48050
L46612 48050
" />
<path d="M58346 20600
L59599 21853
" />
<path d="M59599 21853
L61103 20349
" />
<path d="M33212 48050
L38712 48050
" />
<path d="M38712 48050
L38712 53550
" />
<path d="M38712 53550
L33212 53550
" />
<path d="M33212 53550
L33212 48050
" />
</g>
<g style="fill:#000000; fill-opacity:0.0; 
stroke:#000000; stroke-width:59.0551; stroke-opacity:1; 
stroke-linecap:round; stroke-linejoin:round;">
<path d="M108845 32209
L108751 32209
L108751 31646
L108845 31646
" />
<path d="M109201 32078
L108976 32078
" />
<path d="M109088 32078
L109088 31684
L109051 31740
L109013 31778
L108976 31796
" />
<path d="M77369 31815
L77369 32078
" />
<path d="M77201 31815
L77201 32021
L77219 32059
L77257 32078
L77313 32078
L77351 32059
L77369 32040
" />
<path d="M77763 32078
L77538 32078
" />
<path d="M77651 32078
L77651 31684
L77613 31740
L77576 31778
L77538 31796
" />
<path d="M69320 31815
L69414 32078
" />
<path d="M69508 31815
L69414 32078
L69376 32171
L69358 32190
L69320 32209
" />
<path d="M69864 32078
L69639 32078
" />
<path d="M69751 32078
L69751 31684
L69714 31740
L69676 31778
L69639 31796
" />
<path d="M37779 31815
L37854 32078
L37929 31890
L38004 32078
L38079 31815
" />
<path d="M38436 32078
L38211 32078
" />
<path d="M38323 32078
L38323 31684
L38286 31740
L38248 31778
L38211 31796
" />
<path d="M53644 32078
L53644 31815
" />
<path d="M53644 31890
L53662 31853
L53681 31834
L53719 31815
L53756 31815
" />
<path d="M54093 32078
L53868 32078
" />
<path d="M53981 32078
L53981 31684
L53943 31740
L53906 31778
L53868 31796
" />
<path d="M19834 31684
L20059 31684
" />
<path d="M19946 32078
L19946 31684
" />
<path d="M20171 31965
L20359 31965
" />
<path d="M20134 32078
L20265 31684
L20396 32078
" />
<path d="M20659 31871
L20715 31890
L20734 31909
L20753 31946
L20753 32003
L20734 32040
L20715 32059
L20678 32078
L20528 32078
L20528 31684
L20659 31684
L20696 31703
L20715 31721
L20734 31759
L20734 31796
L20715 31834
L20696 31853
L20659 31871
L20528 31871
" />
<path d="M21128 32078
L20903 32078
" />
<path d="M21015 32078
L21015 31684
L20978 31740
L20940 31778
L20903 31796
" />
<path d="M100814 31815
L100814 32209
" />
<path d="M100814 31834
L100852 31815
L100927 31815
L100964 31834
L100983 31853
L101002 31890
L101002 32003
L100983 32040
L100964 32059
L100927 32078
L100852 32078
L100814 32059
" />
<path d="M101377 32078
L101152 32078
" />
<path d="M101264 32078
L101264 31684
L101227 31740
L101189 31778
L101152 31796
" />
<path d="M126218 31646
L126556 32153
" />
<path d="M126818 32078
L126593 32078
" />
<path d="M126706 32078
L126706 31684
L126668 31740
L126631 31778
L126593 31796
" />
<path d="M45875 32059
L45838 32078
L45763 32078
L45725 32059
L45707 32021
L45707 31871
L45725 31834
L45763 31815
L45838 31815
L45875 31834
L45894 31871
L45894 31909
L45707 31946
" />
<path d="M46269 32078
L46044 32078
" />
<path d="M46157 32078
L46157 31684
L46119 31740
L46082 31778
L46044 31796
" />
<path d="M116566 32209
L116660 32209
L116660 31646
L116566 31646
" />
<path d="M117072 32078
L116847 32078
" />
<path d="M116960 32078
L116960 31684
L116922 31740
L116885 31778
L116847 31796
" />
<path d="M30143 31815
L30143 32209
" />
<path d="M30143 32059
L30105 32078
L30030 32078
L29993 32059
L29974 32040
L29955 32003
L29955 31890
L29974 31853
L29993 31834
L30030 31815
L30105 31815
L30143 31834
" />
<path d="M30536 32078
L30311 32078
" />
<path d="M30424 32078
L30424 31684
L30386 31740
L30349 31778
L30311 31796
" />
<path d="M61468 31815
L61618 31815
" />
<path d="M61524 31684
L61524 32021
L61543 32059
L61580 32078
L61618 32078
" />
<path d="M61955 32078
L61730 32078
" />
<path d="M61843 32078
L61843 31684
L61805 31740
L61768 31778
L61730 31796
" />
<path d="M92999 32078
L92962 32059
L92943 32040
L92924 32003
L92924 31890
L92943 31853
L92962 31834
L92999 31815
L93056 31815
L93093 31834
L93112 31853
L93131 31890
L93131 32003
L93112 32040
L93093 32059
L93056 32078
L92999 32078
" />
<path d="M93505 32078
L93280 32078
" />
<path d="M93393 32078
L93393 31684
L93355 31740
L93318 31778
L93280 31796
" />
<path d="M85156 32078
L85156 31815
" />
<path d="M85156 31684
L85138 31703
L85156 31721
L85175 31703
L85156 31684
L85156 31721
" />
<path d="M85550 32078
L85325 32078
" />
<path d="M85437 32078
L85437 31684
L85400 31740
L85362 31778
L85325 31796
" />
<path d="M123050 23971
L123106 23990
L123125 24009
L123143 24046
L123143 24103
L123125 24140
L123106 24159
L123068 24178
L122918 24178
L122918 23784
L123050 23784
L123087 23803
L123106 23821
L123125 23859
L123125 23896
L123106 23934
L123087 23953
L123050 23971
L122918 23971
" />
<path d="M123293 24065
L123481 24065
" />
<path d="M123256 24178
L123387 23784
L123518 24178
" />
<path d="M123875 24140
L123856 24159
L123800 24178
L123762 24178
L123706 24159
L123668 24121
L123650 24084
L123631 24009
L123631 23953
L123650 23878
L123668 23840
L123706 23803
L123762 23784
L123800 23784
L123856 23803
L123875 23821
" />
<path d="M124043 24178
L124043 23784
" />
<path d="M124268 24178
L124100 23953
" />
<path d="M124268 23784
L124043 24009
" />
<path d="M124418 24159
L124475 24178
L124568 24178
L124606 24159
L124625 24140
L124643 24103
L124643 24065
L124625 24028
L124606 24009
L124568 23990
L124493 23971
L124456 23953
L124437 23934
L124418 23896
L124418 23859
L124437 23821
L124456 23803
L124493 23784
L124587 23784
L124643 23803
" />
<path d="M124812 24178
L124812 23784
L124962 23784
L124999 23803
L125018 23821
L125037 23859
L125037 23915
L125018 23953
L124999 23971
L124962 23990
L124812 23990
" />
<path d="M125187 24065
L125374 24065
" />
<path d="M125149 24178
L125281 23784
L125412 24178
" />
<path d="M125768 24140
L125749 24159
L125693 24178
L125656 24178
L125599 24159
L125562 24121
L125543 24084
L125524 24009
L125524 23953
L125543 23878
L125562 23840
L125599 23803
L125656 23784
L125693 23784
L125749 23803
L125768 23821
" />
<path d="M125937 23971
L126068 23971
" />
<path d="M126124 24178
L125937 24178
L125937 23784
L126124 23784
" />
<path d="M126499 24178
L126274 24178
" />
<path d="M126387 24178
L126387 23784
L126349 23840
L126312 23878
L126274 23896
" />
<path d="M91093 47859
L91093 47878
L91075 47915
L91056 47934
" />
<path d="M91468 47878
L91243 47878
" />
<path d="M91356 47878
L91356 47484
L91318 47540
L91281 47578
L91243 47596
" />
<path d="M98975 47840
L98993 47859
L98975 47878
L98956 47859
L98975 47840
L98975 47878
" />
<path d="M99368 47878
L99143 47878
" />
<path d="M99256 47878
L99256 47484
L99218 47540
L99181 47578
L99143 47596
" />
<path d="M111043 39584
L111006 39659
" />
<path d="M111418 39978
L111193 39978
" />
<path d="M111306 39978
L111306 39584
L111268 39640
L111231 39678
L111193 39696
" />
<path d="M104866 24028
L105166 24028
" />
<path d="M105560 24178
L105335 24178
" />
<path d="M105447 24178
L105447 23784
L105410 23840
L105372 23878
L105335 23896
" />
<path d="M107043 47465
L106706 47971
" />
<path d="M107381 47878
L107156 47878
" />
<path d="M107268 47878
L107268 47484
L107231 47540
L107193 47578
L107156 47596
" />
<path d="M103143 39959
L103143 39978
L103125 40015
L103106 40034
" />
<path d="M103125 39734
L103143 39753
L103125 39771
L103106 39753
L103125 39734
L103125 39771
" />
<path d="M103518 39978
L103293 39978
" />
<path d="M103406 39978
L103406 39584
L103368 39640
L103331 39678
L103293 39696
" />
<path d="M112739 23971
L113039 23971
" />
<path d="M113039 24084
L112739 24084
" />
<path d="M113433 24178
L113208 24178
" />
<path d="M113320 24178
L113320 23784
L113283 23840
L113245 23878
L113208 23896
" />
<path d="M32109 39978
L32109 39771
L32090 39734
L32053 39715
L31978 39715
L31940 39734
" />
<path d="M32109 39959
L32071 39978
L31978 39978
L31940 39959
L31921 39921
L31921 39884
L31940 39846
L31978 39828
L32071 39828
L32109 39809
" />
<path d="M32503 39978
L32278 39978
" />
<path d="M32390 39978
L32390 39584
L32353 39640
L32315 39678
L32278 39696
" />
<path d="M37903 55665
L38090 55665
" />
<path d="M37865 55778
L37997 55384
L38128 55778
" />
<path d="M38446 55778
L38259 55778
L38259 55384
" />
<path d="M38521 55384
L38746 55384
" />
<path d="M38634 55778
L38634 55384
" />
<path d="M38784 55815
L39084 55815
" />
<path d="M39365 55778
L39178 55778
L39178 55384
" />
<path d="M39496 55571
L39628 55571
" />
<path d="M39684 55778
L39496 55778
L39496 55384
L39684 55384
" />
<path d="M39984 55571
L39853 55571
" />
<path d="M39853 55778
L39853 55384
L40040 55384
" />
<path d="M40134 55384
L40359 55384
" />
<path d="M40246 55778
L40246 55384
" />
<path d="M40696 55778
L40471 55778
" />
<path d="M40584 55778
L40584 55384
L40546 55440
L40509 55478
L40471 55496
" />
<path d="M94890 55665
L95078 55665
" />
<path d="M94853 55778
L94984 55384
L95115 55778
" />
<path d="M95434 55778
L95247 55778
L95247 55384
" />
<path d="M95509 55384
L95734 55384
" />
<path d="M95621 55778
L95621 55384
" />
<path d="M95771 55815
L96071 55815
" />
<path d="M96390 55778
L96259 55590
" />
<path d="M96165 55778
L96165 55384
L96315 55384
L96353 55403
L96371 55421
L96390 55459
L96390 55515
L96371 55553
L96353 55571
L96315 55590
L96165 55590
" />
<path d="M96559 55778
L96559 55384
" />
<path d="M96953 55403
L96915 55384
L96859 55384
L96803 55403
L96765 55440
L96746 55478
L96728 55553
L96728 55609
L96746 55684
L96765 55721
L96803 55759
L96859 55778
L96896 55778
L96953 55759
L96971 55740
L96971 55609
L96896 55609
" />
<path d="M97140 55778
L97140 55384
" />
<path d="M97140 55571
L97365 55571
" />
<path d="M97365 55778
L97365 55384
" />
<path d="M97496 55384
L97721 55384
" />
<path d="M97609 55778
L97609 55384
" />
<path d="M98059 55778
L97834 55778
" />
<path d="M97946 55778
L97946 55384
L97909 55440
L97871 55478
L97834 55496
" />
<path d="M111247 55665
L111434 55665
" />
<path d="M111209 55778
L111340 55384
L111472 55778
" />
<path d="M111828 55778
L111697 55590
" />
<path d="M111603 55778
L111603 55384
L111753 55384
L111790 55403
L111809 55421
L111828 55459
L111828 55515
L111809 55553
L111790 55571
L111753 55590
L111603 55590
" />
<path d="M112222 55778
L112090 55590
" />
<path d="M111997 55778
L111997 55384
L112147 55384
L112184 55403
L112203 55421
L112222 55459
L112222 55515
L112203 55553
L112184 55571
L112147 55590
L111997 55590
" />
<path d="M112465 55384
L112540 55384
L112578 55403
L112615 55440
L112634 55515
L112634 55646
L112615 55721
L112578 55759
L112540 55778
L112465 55778
L112428 55759
L112390 55721
L112371 55646
L112371 55515
L112390 55440
L112428 55403
L112465 55384
" />
<path d="M112765 55384
L112859 55778
L112934 55496
L113009 55778
L113103 55384
" />
<path d="M113159 55815
L113459 55815
" />
<path d="M113553 55778
L113553 55384
L113646 55384
L113703 55403
L113740 55440
L113759 55478
L113778 55553
L113778 55609
L113759 55684
L113740 55721
L113703 55759
L113646 55778
L113553 55778
" />
<path d="M114021 55384
L114096 55384
L114134 55403
L114171 55440
L114190 55515
L114190 55646
L114171 55721
L114134 55759
L114096 55778
L114021 55778
L113984 55759
L113946 55721
L113928 55646
L113928 55515
L113946 55440
L113984 55403
L114021 55384
" />
<path d="M114321 55384
L114415 55778
L114490 55496
L114565 55778
L114659 55384
" />
<path d="M114809 55778
L114809 55384
L115034 55778
L115034 55384
" />
<path d="M115427 55778
L115202 55778
" />
<path d="M115315 55778
L115315 55384
L115277 55440
L115240 55478
L115202 55496
" />
<path d="M103462 55665
L103650 55665
" />
<path d="M103425 55778
L103556 55384
L103687 55778
" />
<path d="M104043 55778
L103912 55590
" />
<path d="M103818 55778
L103818 55384
L103968 55384
L104006 55403
L104025 55421
L104043 55459
L104043 55515
L104025 55553
L104006 55571
L103968 55590
L103818 55590
" />
<path d="M104437 55778
L104306 55590
" />
<path d="M104212 55778
L104212 55384
L104362 55384
L104400 55403
L104418 55421
L104437 55459
L104437 55515
L104418 55553
L104400 55571
L104362 55590
L104212 55590
" />
<path d="M104681 55384
L104756 55384
L104793 55403
L104831 55440
L104850 55515
L104850 55646
L104831 55721
L104793 55759
L104756 55778
L104681 55778
L104643 55759
L104606 55721
L104587 55646
L104587 55515
L104606 55440
L104643 55403
L104681 55384
" />
<path d="M104981 55384
L105075 55778
L105150 55496
L105225 55778
L105318 55384
" />
<path d="M105375 55815
L105674 55815
" />
<path d="M105956 55778
L105768 55778
L105768 55384
" />
<path d="M106087 55571
L106218 55571
" />
<path d="M106274 55778
L106087 55778
L106087 55384
L106274 55384
" />
<path d="M106574 55571
L106443 55571
" />
<path d="M106443 55778
L106443 55384
L106631 55384
" />
<path d="M106724 55384
L106949 55384
" />
<path d="M106837 55778
L106837 55384
" />
<path d="M107287 55778
L107062 55778
" />
<path d="M107174 55778
L107174 55384
L107137 55440
L107099 55478
L107062 55496
" />
<path d="M119200 55665
L119387 55665
" />
<path d="M119162 55778
L119294 55384
L119425 55778
" />
<path d="M119781 55778
L119650 55590
" />
<path d="M119556 55778
L119556 55384
L119706 55384
L119743 55403
L119762 55421
L119781 55459
L119781 55515
L119762 55553
L119743 55571
L119706 55590
L119556 55590
" />
<path d="M120175 55778
L120043 55590
" />
<path d="M119950 55778
L119950 55384
L120100 55384
L120137 55403
L120156 55421
L120175 55459
L120175 55515
L120156 55553
L120137 55571
L120100 55590
L119950 55590
" />
<path d="M120418 55384
L120493 55384
L120531 55403
L120568 55440
L120587 55515
L120587 55646
L120568 55721
L120531 55759
L120493 55778
L120418 55778
L120381 55759
L120343 55721
L120325 55646
L120325 55515
L120343 55440
L120381 55403
L120418 55384
" />
<path d="M120718 55384
L120812 55778
L120887 55496
L120962 55778
L121056 55384
" />
<path d="M121112 55815
L121412 55815
" />
<path d="M121731 55778
L121599 55590
" />
<path d="M121506 55778
L121506 55384
L121656 55384
L121693 55403
L121712 55421
L121731 55459
L121731 55515
L121712 55553
L121693 55571
L121656 55590
L121506 55590
" />
<path d="M121899 55778
L121899 55384
" />
<path d="M122293 55403
L122256 55384
L122199 55384
L122143 55403
L122106 55440
L122087 55478
L122068 55553
L122068 55609
L122087 55684
L122106 55721
L122143 55759
L122199 55778
L122237 55778
L122293 55759
L122312 55740
L122312 55609
L122237 55609
" />
<path d="M122481 55778
L122481 55384
" />
<path d="M122481 55571
L122706 55571
" />
<path d="M122706 55778
L122706 55384
" />
<path d="M122837 55384
L123062 55384
" />
<path d="M122949 55778
L122949 55384
" />
<path d="M123399 55778
L123174 55778
" />
<path d="M123287 55778
L123287 55384
L123249 55440
L123212 55478
L123174 55496
" />
<path d="M113303 47765
L113490 47765
" />
<path d="M113265 47878
L113397 47484
L113528 47878
" />
<path d="M113884 47878
L113753 47690
" />
<path d="M113659 47878
L113659 47484
L113809 47484
L113847 47503
L113865 47521
L113884 47559
L113884 47615
L113865 47653
L113847 47671
L113809 47690
L113659 47690
" />
<path d="M114278 47878
L114146 47690
" />
<path d="M114053 47878
L114053 47484
L114203 47484
L114240 47503
L114259 47521
L114278 47559
L114278 47615
L114259 47653
L114240 47671
L114203 47690
L114053 47690
" />
<path d="M114521 47484
L114596 47484
L114634 47503
L114671 47540
L114690 47615
L114690 47746
L114671 47821
L114634 47859
L114596 47878
L114521 47878
L114484 47859
L114446 47821
L114428 47746
L114428 47615
L114446 47540
L114484 47503
L114521 47484
" />
<path d="M114821 47484
L114915 47878
L114990 47596
L115065 47878
L115159 47484
" />
<path d="M115215 47915
L115515 47915
" />
<path d="M115609 47484
L115609 47803
L115628 47840
L115646 47859
L115684 47878
L115759 47878
L115796 47859
L115815 47840
L115834 47803
L115834 47484
" />
<path d="M116021 47878
L116021 47484
L116171 47484
L116209 47503
L116227 47521
L116246 47559
L116246 47615
L116227 47653
L116209 47671
L116171 47690
L116021 47690
" />
<path d="M116621 47878
L116396 47878
" />
<path d="M116509 47878
L116509 47484
L116471 47540
L116434 47578
L116396 47596
" />
<path d="M67290 47878
L67290 47484
" />
<path d="M67290 47634
L67328 47615
L67403 47615
L67440 47634
L67459 47653
L67478 47690
L67478 47803
L67459 47840
L67440 47859
L67403 47878
L67328 47878
L67290 47859
" />
<path d="M67853 47878
L67628 47878
" />
<path d="M67740 47878
L67740 47484
L67703 47540
L67665 47578
L67628 47596
" />
<path d="M58145 18599
L58126 18617
L58070 18636
L58032 18636
L57976 18617
L57938 18580
L57920 18542
L57901 18467
L57901 18411
L57920 18336
L57938 18299
L57976 18261
L58032 18242
L58070 18242
L58126 18261
L58145 18280
" />
<path d="M58519 18636
L58294 18636
" />
<path d="M58407 18636
L58407 18242
L58369 18299
L58332 18336
L58294 18355
" />
<path d="M51668 47859
L51631 47878
L51556 47878
L51518 47859
L51500 47840
L51481 47803
L51481 47690
L51500 47653
L51518 47634
L51556 47615
L51631 47615
L51668 47634
" />
<path d="M52043 47878
L51818 47878
" />
<path d="M51931 47878
L51931 47484
L51893 47540
L51856 47578
L51818 47596
" />
<path d="M29034 22157
L29015 22175
L28959 22194
L28921 22194
L28865 22175
L28828 22138
L28809 22100
L28790 22025
L28790 21969
L28809 21894
L28828 21857
L28865 21819
L28921 21800
L28959 21800
L29015 21819
L29034 21838
" />
<path d="M29184 21838
L29203 21819
L29240 21800
L29334 21800
L29371 21819
L29390 21838
L29409 21875
L29409 21913
L29390 21969
L29165 22194
L29409 22194
" />
<path d="M58059 22932
L58040 22950
L57984 22969
L57946 22969
L57890 22950
L57853 22913
L57834 22875
L57815 22800
L57815 22744
L57834 22669
L57853 22632
L57890 22594
L57946 22575
L57984 22575
L58040 22594
L58059 22613
" />
<path d="M58190 22575
L58434 22575
L58303 22725
L58359 22725
L58396 22744
L58415 22763
L58434 22800
L58434 22894
L58415 22932
L58396 22950
L58359 22969
L58246 22969
L58209 22950
L58190 22932
" />
<path d="M19053 55740
L19034 55759
L18978 55778
L18940 55778
L18884 55759
L18846 55721
L18828 55684
L18809 55609
L18809 55553
L18828 55478
L18846 55440
L18884 55403
L18940 55384
L18978 55384
L19034 55403
L19053 55421
" />
<path d="M19165 55384
L19390 55384
" />
<path d="M19278 55778
L19278 55384
" />
<path d="M19746 55778
L19615 55590
" />
<path d="M19521 55778
L19521 55384
L19671 55384
L19709 55403
L19728 55421
L19746 55459
L19746 55515
L19728 55553
L19709 55571
L19671 55590
L19521 55590
" />
<path d="M20103 55778
L19915 55778
L19915 55384
" />
<path d="M20440 55778
L20215 55778
" />
<path d="M20328 55778
L20328 55384
L20290 55440
L20253 55478
L20215 55496
" />
<path d="M47909 39978
L47909 39584
" />
<path d="M47909 39959
L47871 39978
L47796 39978
L47759 39959
L47740 39940
L47721 39903
L47721 39790
L47740 39753
L47759 39734
L47796 39715
L47871 39715
L47909 39734
" />
<path d="M48303 39978
L48078 39978
" />
<path d="M48190 39978
L48190 39584
L48153 39640
L48115 39678
L48078 39696
" />
<path d="M122797 39771
L122928 39771
" />
<path d="M122984 39978
L122797 39978
L122797 39584
L122984 39584
" />
<path d="M123153 39978
L123153 39584
L123378 39978
L123378 39584
" />
<path d="M123509 39584
L123734 39584
" />
<path d="M123621 39978
L123621 39584
" />
<path d="M123865 39771
L123996 39771
" />
<path d="M124053 39978
L123865 39978
L123865 39584
L124053 39584
" />
<path d="M124446 39978
L124315 39790
" />
<path d="M124221 39978
L124221 39584
L124371 39584
L124409 39603
L124428 39621
L124446 39659
L124446 39715
L124428 39753
L124409 39771
L124371 39790
L124221 39790
" />
<path d="M124821 39978
L124596 39978
" />
<path d="M124709 39978
L124709 39584
L124671 39640
L124634 39678
L124596 39696
" />
<path d="M17943 23971
L18075 23971
" />
<path d="M18131 24178
L17943 24178
L17943 23784
L18131 23784
" />
<path d="M18281 24159
L18337 24178
L18431 24178
L18468 24159
L18487 24140
L18506 24103
L18506 24065
L18487 24028
L18468 24009
L18431 23990
L18356 23971
L18318 23953
L18300 23934
L18281 23896
L18281 23859
L18300 23821
L18318 23803
L18356 23784
L18450 23784
L18506 23803
" />
<path d="M18899 24140
L18881 24159
L18824 24178
L18787 24178
L18731 24159
L18693 24121
L18674 24084
L18656 24009
L18656 23953
L18674 23878
L18693 23840
L18731 23803
L18787 23784
L18824 23784
L18881 23803
L18899 23821
" />
<path d="M19274 24178
L19049 24178
" />
<path d="M19162 24178
L19162 23784
L19124 23840
L19087 23878
L19049 23896
" />
<path d="M55650 39715
L55800 39715
" />
<path d="M55706 39978
L55706 39640
L55725 39603
L55762 39584
L55800 39584
" />
<path d="M56137 39978
L55912 39978
" />
<path d="M56024 39978
L56024 39584
L55987 39640
L55949 39678
L55912 39696
" />
<path d="M21162 39771
L21031 39771
" />
<path d="M21031 39978
L21031 39584
L21218 39584
" />
<path d="M21368 39978
L21368 39584
L21593 39978
L21593 39584
" />
<path d="M21987 39978
L21762 39978
" />
<path d="M21874 39978
L21874 39584
L21837 39640
L21799 39678
L21762 39696
" />
<path d="M63709 39715
L63709 40034
L63690 40071
L63671 40090
L63634 40109
L63578 40109
L63540 40090
" />
<path d="M63709 39959
L63671 39978
L63596 39978
L63559 39959
L63540 39940
L63521 39903
L63521 39790
L63540 39753
L63559 39734
L63596 39715
L63671 39715
L63709 39734
" />
<path d="M64103 39978
L63878 39978
" />
<path d="M63990 39978
L63990 39584
L63953 39640
L63915 39678
L63878 39696
" />
<path d="M71440 39978
L71440 39584
" />
<path d="M71609 39978
L71609 39771
L71590 39734
L71553 39715
L71496 39715
L71459 39734
L71440 39753
" />
<path d="M72003 39978
L71778 39978
" />
<path d="M71890 39978
L71890 39584
L71853 39640
L71815 39678
L71778 39696
" />
<path d="M23768 19283
L23768 19564
L23750 19621
L23712 19658
L23656 19677
L23618 19677
" />
<path d="M24162 19677
L23937 19677
" />
<path d="M24049 19677
L24049 19283
L24012 19339
L23974 19377
L23937 19396
" />
<path d="M79425 39715
L79425 40053
L79406 40090
L79368 40109
L79350 40109
" />
<path d="M79425 39584
L79406 39603
L79425 39621
L79443 39603
L79425 39584
L79425 39621
" />
<path d="M79818 39978
L79593 39978
" />
<path d="M79706 39978
L79706 39584
L79668 39640
L79631 39678
L79593 39696
" />
<path d="M87259 39978
L87259 39584
" />
<path d="M87296 39828
L87409 39978
" />
<path d="M87409 39715
L87259 39865
" />
<path d="M87784 39978
L87559 39978
" />
<path d="M87671 39978
L87671 39584
L87634 39640
L87596 39678
L87559 39696
" />
<path d="M95271 39978
L95234 39959
L95215 39921
L95215 39584
" />
<path d="M95628 39978
L95403 39978
" />
<path d="M95515 39978
L95515 39584
L95478 39640
L95440 39678
L95403 39696
" />
<path d="M83006 47878
L83006 47615
" />
<path d="M83006 47653
L83025 47634
L83062 47615
L83118 47615
L83156 47634
L83175 47671
L83175 47878
" />
<path d="M83175 47671
L83193 47634
L83231 47615
L83287 47615
L83325 47634
L83343 47671
L83343 47878
" />
<path d="M83737 47878
L83512 47878
" />
<path d="M83624 47878
L83624 47484
L83587 47540
L83549 47578
L83512 47596
" />
<path d="M75190 47615
L75190 47878
" />
<path d="M75190 47653
L75209 47634
L75246 47615
L75303 47615
L75340 47634
L75359 47671
L75359 47878
" />
<path d="M75753 47878
L75528 47878
" />
<path d="M75640 47878
L75640 47484
L75603 47540
L75565 47578
L75528 47596
" />
<path d="M26173 24178
L26173 23784
L26398 24178
L26398 23784
" />
<path d="M26791 24178
L26566 24178
" />
<path d="M26679 24178
L26679 23784
L26641 23840
L26604 23878
L26566 23896
" />
<path d="M34046 24178
L34046 23784
L34271 24178
L34271 23784
" />
<path d="M34439 23821
L34458 23803
L34496 23784
L34589 23784
L34627 23803
L34646 23821
L34664 23859
L34664 23896
L34646 23953
L34421 24178
L34664 24178
" />
<path d="M41919 24178
L41919 23784
L42144 24178
L42144 23784
" />
<path d="M42294 23784
L42537 23784
L42406 23934
L42462 23934
L42500 23953
L42519 23971
L42537 24009
L42537 24103
L42519 24140
L42500 24159
L42462 24178
L42350 24178
L42312 24159
L42294 24140
" />
<path d="M49792 24178
L49792 23784
L50017 24178
L50017 23784
" />
<path d="M50373 23915
L50373 24178
" />
<path d="M50279 23765
L50186 24046
L50429 24046
" />
<path d="M57665 24178
L57665 23784
L57890 24178
L57890 23784
" />
<path d="M58265 23784
L58077 23784
L58059 23971
L58077 23953
L58115 23934
L58209 23934
L58246 23953
L58265 23971
L58284 24009
L58284 24103
L58265 24140
L58246 24159
L58209 24178
L58115 24178
L58077 24159
L58059 24140
" />
<path d="M65538 24178
L65538 23784
L65763 24178
L65763 23784
" />
<path d="M66119 23784
L66044 23784
L66007 23803
L65988 23821
L65950 23878
L65932 23953
L65932 24103
L65950 24140
L65969 24159
L66007 24178
L66082 24178
L66119 24159
L66138 24140
L66157 24103
L66157 24009
L66138 23971
L66119 23953
L66082 23934
L66007 23934
L65969 23953
L65950 23971
L65932 24009
" />
<path d="M73411 24178
L73411 23784
L73636 24178
L73636 23784
" />
<path d="M73786 23784
L74048 23784
L73880 24178
" />
<path d="M81284 24178
L81284 23784
L81509 24178
L81509 23784
" />
<path d="M81753 23953
L81715 23934
L81697 23915
L81678 23878
L81678 23859
L81697 23821
L81715 23803
L81753 23784
L81828 23784
L81865 23803
L81884 23821
L81903 23859
L81903 23878
L81884 23915
L81865 23934
L81828 23953
L81753 23953
L81715 23971
L81697 23990
L81678 24028
L81678 24103
L81697 24140
L81715 24159
L81753 24178
L81828 24178
L81865 24159
L81884 24140
L81903 24103
L81903 24028
L81884 23990
L81865 23971
L81828 23953
" />
<path d="M89157 24178
L89157 23784
L89382 24178
L89382 23784
" />
<path d="M89588 24178
L89663 24178
L89701 24159
L89720 24140
L89757 24084
L89776 24009
L89776 23859
L89757 23821
L89738 23803
L89701 23784
L89626 23784
L89588 23803
L89570 23821
L89551 23859
L89551 23953
L89570 23990
L89588 24009
L89626 24028
L89701 24028
L89738 24009
L89757 23990
L89776 23953
" />
<path d="M97030 24178
L97030 23784
L97255 24178
L97255 23784
" />
<path d="M97518 23784
L97555 23784
L97593 23803
L97611 23821
L97630 23859
L97649 23934
L97649 24028
L97630 24103
L97611 24140
L97593 24159
L97555 24178
L97518 24178
L97480 24159
L97462 24140
L97443 24103
L97424 24028
L97424 23934
L97443 23859
L97462 23821
L97480 23803
L97518 23784
" />
<path d="M123528 21190
L123340 21321
" />
<path d="M123528 21415
L123134 21415
L123134 21265
L123153 21228
L123171 21209
L123209 21190
L123265 21190
L123303 21209
L123321 21228
L123340 21265
L123340 21415
" />
<path d="M123528 20815
L123528 21040
" />
<path d="M123528 20928
L123134 20928
L123190 20965
L123228 21003
L123246 21040
" />
<path d="M127028 21115
L126840 21246
" />
<path d="M127028 21340
L126634 21340
L126634 21190
L126653 21153
L126671 21134
L126709 21115
L126765 21115
L126803 21134
L126821 21153
L126840 21190
L126840 21340
" />
<path d="M126671 20965
L126653 20946
L126634 20909
L126634 20815
L126653 20778
L126671 20759
L126709 20740
L126746 20740
L126803 20759
L127028 20984
L127028 20740
" />
<path d="M125034 19261
L124903 19073
" />
<path d="M124809 19261
L124809 18867
L124959 18867
L124996 18886
L125015 18904
L125034 18942
L125034 18998
L125015 19036
L124996 19054
L124959 19073
L124809 19073
" />
<path d="M125165 18867
L125409 18867
L125278 19017
L125334 19017
L125371 19036
L125390 19054
L125409 19092
L125409 19186
L125390 19223
L125371 19242
L125334 19261
L125221 19261
L125184 19242
L125165 19223
" />
<path d="M31434 20118
L31303 19930
" />
<path d="M31209 20118
L31209 19724
L31359 19724
L31396 19743
L31415 19761
L31434 19799
L31434 19855
L31415 19893
L31396 19911
L31359 19930
L31209 19930
" />
<path d="M31771 19855
L31771 20118
" />
<path d="M31678 19705
L31584 19986
L31828 19986
" />
<path d="M31434 18538
L31303 18350
" />
<path d="M31209 18538
L31209 18144
L31359 18144
L31396 18163
L31415 18181
L31434 18219
L31434 18275
L31415 18313
L31396 18331
L31359 18350
L31209 18350
" />
<path d="M31790 18144
L31603 18144
L31584 18331
L31603 18313
L31640 18294
L31734 18294
L31771 18313
L31790 18331
L31809 18369
L31809 18463
L31790 18500
L31771 18519
L31734 18538
L31640 18538
L31603 18519
L31584 18500
" />
<path d="M62945 20265
L62757 20396
" />
<path d="M62945 20490
L62551 20490
L62551 20340
L62570 20303
L62588 20284
L62626 20265
L62682 20265
L62720 20284
L62738 20303
L62757 20340
L62757 20490
" />
<path d="M62551 19928
L62551 20003
L62570 20040
L62588 20059
L62645 20096
L62720 20115
L62870 20115
L62907 20096
L62926 20078
L62945 20040
L62945 19965
L62926 19928
L62907 19909
L62870 19890
L62776 19890
L62738 19909
L62720 19928
L62701 19965
L62701 20040
L62720 20078
L62738 20096
L62776 20115
" />
<path d="M47995 20265
L47807 20396
" />
<path d="M47995 20490
L47601 20490
L47601 20340
L47620 20303
L47638 20284
L47676 20265
L47732 20265
L47770 20284
L47788 20303
L47807 20340
L47807 20490
" />
<path d="M47601 20134
L47601 19871
L47995 20040
" />
<path d="M124640 22878
L124509 22690
" />
<path d="M124415 22878
L124415 22484
L124565 22484
L124603 22503
L124621 22521
L124640 22559
L124640 22615
L124621 22653
L124603 22671
L124565 22690
L124415 22690
" />
<path d="M125015 22503
L124978 22484
L124921 22484
L124865 22503
L124828 22540
L124809 22578
L124790 22653
L124790 22709
L124809 22784
L124828 22821
L124865 22859
L124921 22878
L124959 22878
L125015 22859
L125034 22840
L125034 22709
L124959 22709
" />
<path d="M125334 22671
L125390 22690
L125409 22709
L125428 22746
L125428 22803
L125409 22840
L125390 22859
L125353 22878
L125203 22878
L125203 22484
L125334 22484
L125371 22503
L125390 22521
L125409 22559
L125409 22596
L125390 22634
L125371 22653
L125334 22671
L125203 22671
" />
<path d="M125803 22878
L125578 22878
" />
<path d="M125690 22878
L125690 22484
L125653 22540
L125615 22578
L125578 22596
" />
<path d="M39840 39959
L39878 39978
L39953 39978
L39990 39959
L40009 39921
L40009 39903
L39990 39865
L39953 39846
L39896 39846
L39859 39828
L39840 39790
L39840 39771
L39859 39734
L39896 39715
L39953 39715
L39990 39734
" />
<path d="M40384 39978
L40159 39978
" />
<path d="M40271 39978
L40271 39584
L40234 39640
L40196 39678
L40159 39696
" />
<path d="M21650 47859
L21706 47878
L21800 47878
L21837 47859
L21856 47840
L21875 47803
L21875 47765
L21856 47728
L21837 47709
L21800 47690
L21725 47671
L21687 47653
L21668 47634
L21650 47596
L21650 47559
L21668 47521
L21687 47503
L21725 47484
L21818 47484
L21875 47503
" />
<path d="M22043 47878
L22043 47484
" />
<path d="M22043 47671
L22268 47671
" />
<path d="M22268 47878
L22268 47484
" />
<path d="M22456 47878
L22456 47484
" />
<path d="M22775 47671
L22643 47671
" />
<path d="M22643 47878
L22643 47484
L22831 47484
" />
<path d="M22925 47484
L23150 47484
" />
<path d="M23037 47878
L23037 47484
" />
<path d="M23187 47915
L23487 47915
" />
<path d="M23768 47878
L23581 47878
L23581 47484
" />
<path d="M23899 47671
L24031 47671
" />
<path d="M24087 47878
L23899 47878
L23899 47484
L24087 47484
" />
<path d="M24387 47671
L24256 47671
" />
<path d="M24256 47878
L24256 47484
L24443 47484
" />
<path d="M24537 47484
L24762 47484
" />
<path d="M24649 47878
L24649 47484
" />
<path d="M25099 47878
L24874 47878
" />
<path d="M24987 47878
L24987 47484
L24949 47540
L24912 47578
L24874 47596
" />
<path d="M123762 47859
L123818 47878
L123912 47878
L123950 47859
L123968 47840
L123987 47803
L123987 47765
L123968 47728
L123950 47709
L123912 47690
L123837 47671
L123800 47653
L123781 47634
L123762 47596
L123762 47559
L123781 47521
L123800 47503
L123837 47484
L123931 47484
L123987 47503
" />
<path d="M124156 47878
L124156 47484
" />
<path d="M124156 47671
L124381 47671
" />
<path d="M124381 47878
L124381 47484
" />
<path d="M124568 47878
L124568 47484
" />
<path d="M124887 47671
L124756 47671
" />
<path d="M124756 47878
L124756 47484
L124943 47484
" />
<path d="M125037 47484
L125262 47484
" />
<path d="M125150 47878
L125150 47484
" />
<path d="M125300 47915
L125600 47915
" />
<path d="M125918 47878
L125787 47690
" />
<path d="M125693 47878
L125693 47484
L125843 47484
L125881 47503
L125899 47521
L125918 47559
L125918 47615
L125899 47653
L125881 47671
L125843 47690
L125693 47690
" />
<path d="M126087 47878
L126087 47484
" />
<path d="M126481 47503
L126443 47484
L126387 47484
L126331 47503
L126293 47540
L126274 47578
L126256 47653
L126256 47709
L126274 47784
L126293 47821
L126331 47859
L126387 47878
L126424 47878
L126481 47859
L126499 47840
L126499 47709
L126424 47709
" />
<path d="M126668 47878
L126668 47484
" />
<path d="M126668 47671
L126893 47671
" />
<path d="M126893 47878
L126893 47484
" />
<path d="M127024 47484
L127249 47484
" />
<path d="M127137 47878
L127137 47484
" />
<path d="M127587 47878
L127362 47878
" />
<path d="M127474 47878
L127474 47484
L127437 47540
L127399 47578
L127362 47596
" />
<path d="M66847 55759
L66903 55778
L66996 55778
L67034 55759
L67053 55740
L67071 55703
L67071 55665
L67053 55628
L67034 55609
L66996 55590
L66921 55571
L66884 55553
L66865 55534
L66847 55496
L66847 55459
L66865 55421
L66884 55403
L66921 55384
L67015 55384
L67071 55403
" />
<path d="M67240 55778
L67240 55384
L67390 55384
L67428 55403
L67446 55421
L67465 55459
L67465 55515
L67446 55553
L67428 55571
L67390 55590
L67240 55590
" />
<path d="M67615 55665
L67803 55665
" />
<path d="M67578 55778
L67709 55384
L67840 55778
" />
<path d="M68196 55740
L68178 55759
L68121 55778
L68084 55778
L68028 55759
L67990 55721
L67971 55684
L67953 55609
L67953 55553
L67971 55478
L67990 55440
L68028 55403
L68084 55384
L68121 55384
L68178 55403
L68196 55421
" />
<path d="M68365 55571
L68496 55571
" />
<path d="M68553 55778
L68365 55778
L68365 55384
L68553 55384
" />
<path d="M68927 55778
L68703 55778
" />
<path d="M68815 55778
L68815 55384
L68778 55440
L68740 55478
L68703 55496
" />
<path d="M28384 55759
L28440 55778
L28534 55778
L28571 55759
L28590 55740
L28609 55703
L28609 55665
L28590 55628
L28571 55609
L28534 55590
L28459 55571
L28422 55553
L28403 55534
L28384 55496
L28384 55459
L28403 55421
L28422 55403
L28459 55384
L28553 55384
L28609 55403
" />
<path d="M28778 55384
L28778 55703
L28796 55740
L28815 55759
L28853 55778
L28928 55778
L28965 55759
L28984 55740
L29003 55703
L29003 55384
" />
<path d="M29190 55778
L29190 55384
L29340 55384
L29378 55403
L29396 55421
L29415 55459
L29415 55515
L29396 55553
L29378 55571
L29340 55590
L29190 55590
" />
<path d="M29584 55571
L29715 55571
" />
<path d="M29771 55778
L29584 55778
L29584 55384
L29771 55384
" />
<path d="M30165 55778
L30034 55590
" />
<path d="M29940 55778
L29940 55384
L30090 55384
L30128 55403
L30146 55421
L30165 55459
L30165 55515
L30146 55553
L30128 55571
L30090 55590
L29940 55590
" />
<path d="M30540 55778
L30315 55778
" />
<path d="M30428 55778
L30428 55384
L30390 55440
L30353 55478
L30315 55496
" />
<path d="M68446 20724
L68465 20668
L68465 20574
L68446 20537
L68428 20518
L68390 20499
L68353 20499
L68315 20518
L68296 20537
L68278 20574
L68259 20649
L68240 20687
L68221 20706
L68184 20724
L68146 20724
L68109 20706
L68090 20687
L68071 20649
L68071 20556
L68090 20499
" />
<path d="M68071 20368
L68465 20274
L68184 20200
L68465 20125
L68071 20031
" />
<path d="M68465 19675
L68465 19900
" />
<path d="M68465 19787
L68071 19787
L68128 19825
L68165 19862
L68184 19900
" />
<path d="M50976 20574
L51295 20574
L51332 20556
L51351 20537
L51370 20499
L51370 20424
L51351 20387
L51332 20368
L51295 20349
L50976 20349
" />
<path d="M51370 19956
L51370 20181
" />
<path d="M51370 20068
L50976 20068
L51032 20106
L51070 20143
L51088 20181
" />
<path d="M59381 47615
L59475 47878
L59568 47615
" />
<path d="M59924 47878
L59699 47878
" />
<path d="M59812 47878
L59812 47484
L59774 47540
L59737 47578
L59699 47596
" />
<path d="M43571 47878
L43778 47615
" />
<path d="M43571 47615
L43778 47878
" />
<path d="M44134 47878
L43909 47878
" />
<path d="M44021 47878
L44021 47484
L43984 47540
L43946 47578
L43909 47596
" />
<path d="M60599 19335
L60466 19468
" />
<path d="M60652 19097
L60599 19335
L60837 19282
" />
<path d="M60797 19799
L60638 19640
" />
<path d="M60718 19720
L60996 19441
L60930 19455
L60877 19455
L60837 19441
" />
<path d="M35671 47615
L35878 47615
L35671 47878
L35878 47878
" />
<path d="M36234 47878
L36009 47878
" />
<path d="M36121 47878
L36121 47484
L36084 47540
L36046 47578
L36009 47596
" />
<path d="M129962 62653
L129962 62259
L130093 62540
L130225 62259
L130225 62653
" />
<path d="M130487 62259
L130562 62259
L130600 62278
L130637 62315
L130656 62390
L130656 62521
L130637 62596
L130600 62634
L130562 62653
L130487 62653
L130450 62634
L130412 62596
L130393 62521
L130393 62390
L130412 62315
L130450 62278
L130487 62259
" />
<path d="M130825 62259
L130825 62578
L130843 62615
L130862 62634
L130900 62653
L130975 62653
L131012 62634
L131031 62615
L131050 62578
L131050 62259
" />
<path d="M131237 62653
L131237 62259
L131462 62653
L131462 62259
" />
<path d="M131593 62259
L131818 62259
" />
<path d="M131706 62653
L131706 62259
" />
<path d="M132156 62653
L131931 62653
" />
<path d="M132043 62653
L132043 62259
L132006 62315
L131968 62353
L131931 62371
" />
<path d="M129887 17925
L129887 17531
L130018 17812
L130150 17531
L130150 17925
" />
<path d="M130412 17531
L130487 17531
L130525 17550
L130562 17587
L130581 17662
L130581 17793
L130562 17868
L130525 17906
L130487 17925
L130412 17925
L130375 17906
L130337 17868
L130318 17793
L130318 17662
L130337 17587
L130375 17550
L130412 17531
" />
<path d="M130750 17531
L130750 17850
L130768 17887
L130787 17906
L130825 17925
L130900 17925
L130937 17906
L130956 17887
L130975 17850
L130975 17531
" />
<path d="M131162 17925
L131162 17531
L131387 17925
L131387 17531
" />
<path d="M131518 17531
L131743 17531
" />
<path d="M131631 17925
L131631 17531
" />
<path d="M131856 17568
L131874 17550
L131912 17531
L132006 17531
L132043 17550
L132062 17568
L132081 17606
L132081 17643
L132062 17700
L131837 17925
L132081 17925
" />
<path d="M15387 18200
L15387 17806
L15518 18087
L15650 17806
L15650 18200
" />
<path d="M15912 17806
L15987 17806
L16025 17825
L16062 17862
L16081 17937
L16081 18068
L16062 18143
L16025 18181
L15987 18200
L15912 18200
L15875 18181
L15837 18143
L15818 18068
L15818 17937
L15837 17862
L15875 17825
L15912 17806
" />
<path d="M16250 17806
L16250 18125
L16268 18162
L16287 18181
L16325 18200
L16400 18200
L16437 18181
L16456 18162
L16475 18125
L16475 17806
" />
<path d="M16662 18200
L16662 17806
L16887 18200
L16887 17806
" />
<path d="M17018 17806
L17243 17806
" />
<path d="M17131 18200
L17131 17806
" />
<path d="M17337 17806
L17581 17806
L17449 17956
L17506 17956
L17543 17975
L17562 17993
L17581 18031
L17581 18125
L17562 18162
L17543 18181
L17506 18200
L17393 18200
L17356 18181
L17337 18162
" />
<path d="M23437 60275
L23437 59881
L23568 60162
L23700 59881
L23700 60275
" />
<path d="M23962 59881
L24037 59881
L24075 59900
L24112 59937
L24131 60012
L24131 60143
L24112 60218
L24075 60256
L24037 60275
L23962 60275
L23925 60256
L23887 60218
L23868 60143
L23868 60012
L23887 59937
L23925 59900
L23962 59881
" />
<path d="M24300 59881
L24300 60200
L24318 60237
L24337 60256
L24375 60275
L24450 60275
L24487 60256
L24506 60237
L24525 60200
L24525 59881
" />
<path d="M24712 60275
L24712 59881
L24937 60275
L24937 59881
" />
<path d="M25068 59881
L25293 59881
" />
<path d="M25181 60275
L25181 59881
" />
<path d="M25593 60012
L25593 60275
" />
<path d="M25499 59862
L25406 60143
L25649 60143
" />
</g> 
</svg>
