<?xml version="1.0" standalone="no"?>
 <!DOCTYPE svg PUBLIC "-//W3C//DTD SVG 1.1//EN" 
 "http://www.w3.org/Graphics/SVG/1.1/DTD/svg11.dtd"> 
<svg xmlns="http://www.w3.org/2000/svg" version="1.1" 
    width="41.9989cm" height="29.7002cm" viewBox="0 0 165350 116930 ">
<title>SVG Picture created as keyboard1-B.SilkS.svg date 2019/02/10 16:03:45 </title>
  <desc>Picture generated by PCBNEW </desc>
<g style="fill:#000000; fill-opacity:1;stroke:#000000; stroke-opacity:1;
stroke-linecap:round; stroke-linejoin:round; "
 transform="translate(0 0) scale(1 1)">
</g>
<g style="fill:#000000; fill-opacity:0.0; 
stroke:#000000; stroke-width:-0.000393701; stroke-opacity:1; 
stroke-linecap:round; stroke-linejoin:round;">
</g>
<g style="fill:#000000; fill-opacity:0.0; 
stroke:#000000; stroke-width:47.2441; stroke-opacity:1; 
stroke-linecap:round; stroke-linejoin:round;">
<path d="M19298 28665
L18057 28665
" />
<path d="M19298 29334
L18057 29334
" />
<path d="M19298 28665
L19298 29334
" />
<path d="M21198 36565
L21198 37234
" />
<path d="M21198 37234
L19957 37234
" />
<path d="M21198 36565
L19957 36565
" />
<path d="M22248 44415
L22248 45084
" />
<path d="M22248 45084
L21007 45084
" />
<path d="M22248 44415
L21007 44415
" />
<path d="M23948 52315
L22707 52315
" />
<path d="M23948 52984
L22707 52984
" />
<path d="M23948 52315
L23948 52984
" />
<path d="M20348 60215
L19107 60215
" />
<path d="M20348 60884
L19107 60884
" />
<path d="M20348 60215
L20348 60884
" />
<path d="M27198 28715
L27198 29384
" />
<path d="M27198 29384
L25957 29384
" />
<path d="M27198 28715
L25957 28715
" />
<path d="M31148 36515
L31148 37184
" />
<path d="M31148 37184
L29907 37184
" />
<path d="M31148 36515
L29907 36515
" />
<path d="M32998 44415
L32998 45084
" />
<path d="M32998 45084
L31757 45084
" />
<path d="M32998 44415
L31757 44415
" />
<path d="M30248 60215
L29007 60215
" />
<path d="M30248 60884
L29007 60884
" />
<path d="M30248 60215
L30248 60884
" />
<path d="M35198 28715
L35198 29384
" />
<path d="M35198 29384
L33957 29384
" />
<path d="M35198 28715
L33957 28715
" />
<path d="M38998 36515
L37757 36515
" />
<path d="M38998 37184
L37757 37184
" />
<path d="M38998 36515
L38998 37184
" />
<path d="M40898 44415
L40898 45084
" />
<path d="M40898 45084
L39657 45084
" />
<path d="M40898 44415
L39657 44415
" />
<path d="M36948 52315
L36948 52984
" />
<path d="M36948 52984
L35707 52984
" />
<path d="M36948 52315
L35707 52315
" />
<path d="M40198 60215
L40198 60884
" />
<path d="M40198 60884
L38957 60884
" />
<path d="M40198 60215
L38957 60215
" />
<path d="M43098 28715
L41857 28715
" />
<path d="M43098 29384
L41857 29384
" />
<path d="M43098 28715
L43098 29384
" />
<path d="M46748 36515
L45507 36515
" />
<path d="M46748 37184
L45507 37184
" />
<path d="M46748 36515
L46748 37184
" />
<path d="M48798 44415
L48798 45084
" />
<path d="M48798 45084
L47557 45084
" />
<path d="M48798 44415
L47557 44415
" />
<path d="M44648 52365
L44648 53034
" />
<path d="M44648 53034
L43407 53034
" />
<path d="M44648 52365
L43407 52365
" />
<path d="M50948 28565
L50948 29234
" />
<path d="M50948 29234
L49707 29234
" />
<path d="M50948 28565
L49707 28565
" />
<path d="M54598 36515
L53357 36515
" />
<path d="M54598 37184
L53357 37184
" />
<path d="M54598 36515
L54598 37184
" />
<path d="M56648 44415
L56648 45084
" />
<path d="M56648 45084
L55407 45084
" />
<path d="M56648 44415
L55407 44415
" />
<path d="M52748 52365
L52748 53034
" />
<path d="M52748 53034
L51507 53034
" />
<path d="M52748 52365
L51507 52365
" />
<path d="M58698 28465
L58698 29134
" />
<path d="M58698 29134
L57457 29134
" />
<path d="M58698 28465
L57457 28465
" />
<path d="M62448 36465
L61207 36465
" />
<path d="M62448 37134
L61207 37134
" />
<path d="M62448 36465
L62448 37134
" />
<path d="M64498 44415
L64498 45084
" />
<path d="M64498 45084
L63257 45084
" />
<path d="M64498 44415
L63257 44415
" />
<path d="M60448 52415
L60448 53084
" />
<path d="M60448 53084
L59207 53084
" />
<path d="M60448 52415
L59207 52415
" />
<path d="M66698 28515
L66698 29184
" />
<path d="M66698 29184
L65457 29184
" />
<path d="M66698 28515
L65457 28515
" />
<path d="M70448 36465
L69207 36465
" />
<path d="M70448 37134
L69207 37134
" />
<path d="M70448 36465
L70448 37134
" />
<path d="M72548 44415
L71307 44415
" />
<path d="M72548 45084
L71307 45084
" />
<path d="M72548 44415
L72548 45084
" />
<path d="M68448 52415
L68448 53084
" />
<path d="M68448 53084
L67207 53084
" />
<path d="M68448 52415
L67207 52415
" />
<path d="M68648 60215
L67407 60215
" />
<path d="M68648 60884
L67407 60884
" />
<path d="M68648 60215
L68648 60884
" />
<path d="M74448 28465
L74448 29134
" />
<path d="M74448 29134
L73207 29134
" />
<path d="M74448 28465
L73207 28465
" />
<path d="M78198 36515
L76957 36515
" />
<path d="M78198 37184
L76957 37184
" />
<path d="M78198 36515
L78198 37184
" />
<path d="M80298 44365
L79057 44365
" />
<path d="M80298 45034
L79057 45034
" />
<path d="M80298 44365
L80298 45034
" />
<path d="M76248 52415
L76248 53084
" />
<path d="M76248 53084
L75007 53084
" />
<path d="M76248 52415
L75007 52415
" />
<path d="M82498 28465
L82498 29134
" />
<path d="M82498 29134
L81257 29134
" />
<path d="M82498 28465
L81257 28465
" />
<path d="M86098 36515
L84857 36515
" />
<path d="M86098 37184
L84857 37184
" />
<path d="M86098 36515
L86098 37184
" />
<path d="M88248 44365
L87007 44365
" />
<path d="M88248 45034
L87007 45034
" />
<path d="M88248 44365
L88248 45034
" />
<path d="M84348 52365
L84348 53034
" />
<path d="M84348 53034
L83107 53034
" />
<path d="M84348 52365
L83107 52365
" />
<path d="M90398 28515
L89157 28515
" />
<path d="M90398 29184
L89157 29184
" />
<path d="M90398 28515
L90398 29184
" />
<path d="M94048 36515
L92807 36515
" />
<path d="M94048 37184
L92807 37184
" />
<path d="M94048 36515
L94048 37184
" />
<path d="M96098 44415
L94857 44415
" />
<path d="M96098 45084
L94857 45084
" />
<path d="M96098 44415
L96098 45084
" />
<path d="M92098 52315
L90857 52315
" />
<path d="M92098 52984
L90857 52984
" />
<path d="M92098 52315
L92098 52984
" />
<path d="M98248 28465
L98248 29134
" />
<path d="M98248 29134
L97007 29134
" />
<path d="M98248 28465
L97007 28465
" />
<path d="M102048 36465
L102048 37134
" />
<path d="M102048 37134
L100807 37134
" />
<path d="M102048 36465
L100807 36465
" />
<path d="M104098 44365
L102857 44365
" />
<path d="M104098 45034
L102857 45034
" />
<path d="M104098 44365
L104098 45034
" />
<path d="M99998 52315
L98757 52315
" />
<path d="M99998 52984
L98757 52984
" />
<path d="M99998 52315
L99998 52984
" />
<path d="M97298 60165
L96057 60165
" />
<path d="M97298 60834
L96057 60834
" />
<path d="M97298 60165
L97298 60834
" />
<path d="M105998 28465
L105998 29134
" />
<path d="M105998 29134
L104757 29134
" />
<path d="M105998 28465
L104757 28465
" />
<path d="M109848 36465
L109848 37134
" />
<path d="M109848 37134
L108607 37134
" />
<path d="M109848 36465
L108607 36465
" />
<path d="M111998 44315
L110757 44315
" />
<path d="M111998 44984
L110757 44984
" />
<path d="M111998 44315
L111998 44984
" />
<path d="M107898 52265
L106657 52265
" />
<path d="M107898 52934
L106657 52934
" />
<path d="M107898 52265
L107898 52934
" />
<path d="M106098 60215
L104857 60215
" />
<path d="M106098 60884
L104857 60884
" />
<path d="M106098 60215
L106098 60884
" />
<path d="M113898 28415
L113898 29084
" />
<path d="M113898 29084
L112657 29084
" />
<path d="M113898 28415
L112657 28415
" />
<path d="M117948 36465
L117948 37134
" />
<path d="M117948 37134
L116707 37134
" />
<path d="M117948 36465
L116707 36465
" />
<path d="M124848 44315
L123607 44315
" />
<path d="M124848 44984
L123607 44984
" />
<path d="M124848 44315
L124848 44984
" />
<path d="M115748 52265
L114507 52265
" />
<path d="M115748 52934
L114507 52934
" />
<path d="M115748 52265
L115748 52934
" />
<path d="M114048 60215
L112807 60215
" />
<path d="M114048 60884
L112807 60884
" />
<path d="M114048 60215
L114048 60884
" />
<path d="M125498 28515
L125498 29184
" />
<path d="M125498 29184
L124257 29184
" />
<path d="M125498 28515
L124257 28515
" />
<path d="M127398 36415
L127398 37084
" />
<path d="M127398 37084
L126157 37084
" />
<path d="M127398 36415
L126157 36415
" />
<path d="M126598 52215
L126598 52884
" />
<path d="M126598 52884
L125357 52884
" />
<path d="M126598 52215
L125357 52215
" />
<path d="M122098 60165
L120857 60165
" />
<path d="M122098 60834
L120857 60834
" />
<path d="M122098 60165
L122098 60834
" />
</g>
<g style="fill:#000000; fill-opacity:0.0; 
stroke:#000000; stroke-width:59.0551; stroke-opacity:1; 
stroke-linecap:round; stroke-linejoin:round;">
<path d="M18840 28449
L18840 28056
L18746 28056
L18690 28074
L18653 28112
L18634 28149
L18615 28224
L18615 28281
L18634 28356
L18653 28393
L18690 28431
L18746 28449
L18840 28449
" />
<path d="M18465 28093
L18446 28074
L18409 28056
L18315 28056
L18278 28074
L18259 28093
L18240 28131
L18240 28168
L18259 28224
L18484 28449
L18240 28449
" />
<path d="M20740 36349
L20740 35956
L20646 35956
L20590 35974
L20553 36012
L20534 36049
L20515 36124
L20515 36181
L20534 36256
L20553 36293
L20590 36331
L20646 36349
L20740 36349
" />
<path d="M20384 35956
L20140 35956
L20271 36106
L20215 36106
L20178 36124
L20159 36143
L20140 36181
L20140 36274
L20159 36312
L20178 36331
L20215 36349
L20328 36349
L20365 36331
L20384 36312
" />
<path d="M21790 44199
L21790 43806
L21696 43806
L21640 43824
L21603 43862
L21584 43899
L21565 43974
L21565 44031
L21584 44106
L21603 44143
L21640 44181
L21696 44199
L21790 44199
" />
<path d="M21228 43937
L21228 44199
" />
<path d="M21321 43787
L21415 44068
L21171 44068
" />
<path d="M23490 52099
L23490 51706
L23396 51706
L23340 51724
L23303 51762
L23284 51799
L23265 51874
L23265 51931
L23284 52006
L23303 52043
L23340 52081
L23396 52099
L23490 52099
" />
<path d="M22909 51706
L23096 51706
L23115 51893
L23096 51874
L23059 51856
L22965 51856
L22928 51874
L22909 51893
L22890 51931
L22890 52024
L22909 52062
L22928 52081
L22965 52099
L23059 52099
L23096 52081
L23115 52062
" />
<path d="M19890 59999
L19890 59606
L19796 59606
L19740 59624
L19703 59662
L19684 59699
L19665 59774
L19665 59831
L19684 59906
L19703 59943
L19740 59981
L19796 59999
L19890 59999
" />
<path d="M19328 59606
L19403 59606
L19440 59624
L19459 59643
L19496 59699
L19515 59774
L19515 59924
L19496 59962
L19478 59981
L19440 59999
L19365 59999
L19328 59981
L19309 59962
L19290 59924
L19290 59831
L19309 59793
L19328 59774
L19365 59756
L19440 59756
L19478 59774
L19496 59793
L19515 59831
" />
<path d="M26740 28499
L26740 28106
L26646 28106
L26590 28124
L26553 28162
L26534 28199
L26515 28274
L26515 28331
L26534 28406
L26553 28443
L26590 28481
L26646 28499
L26740 28499
" />
<path d="M26384 28106
L26121 28106
L26290 28499
" />
<path d="M30690 36299
L30690 35906
L30596 35906
L30540 35924
L30503 35962
L30484 35999
L30465 36074
L30465 36131
L30484 36206
L30503 36243
L30540 36281
L30596 36299
L30690 36299
" />
<path d="M30240 36074
L30278 36056
L30296 36037
L30315 35999
L30315 35981
L30296 35943
L30278 35924
L30240 35906
L30165 35906
L30128 35924
L30109 35943
L30090 35981
L30090 35999
L30109 36037
L30128 36056
L30165 36074
L30240 36074
L30278 36093
L30296 36112
L30315 36149
L30315 36224
L30296 36262
L30278 36281
L30240 36299
L30165 36299
L30128 36281
L30109 36262
L30090 36224
L30090 36149
L30109 36112
L30128 36093
L30165 36074
" />
<path d="M32540 44199
L32540 43806
L32446 43806
L32390 43824
L32353 43862
L32334 43899
L32315 43974
L32315 44031
L32334 44106
L32353 44143
L32390 44181
L32446 44199
L32540 44199
" />
<path d="M32128 44199
L32053 44199
L32015 44181
L31996 44162
L31959 44106
L31940 44031
L31940 43881
L31959 43843
L31978 43824
L32015 43806
L32090 43806
L32128 43824
L32146 43843
L32165 43881
L32165 43974
L32146 44012
L32128 44031
L32090 44049
L32015 44049
L31978 44031
L31959 44012
L31940 43974
" />
<path d="M29978 59999
L29978 59606
L29884 59606
L29828 59624
L29790 59662
L29771 59699
L29753 59774
L29753 59831
L29771 59906
L29790 59943
L29828 59981
L29884 59999
L29978 59999
" />
<path d="M29378 59999
L29603 59999
" />
<path d="M29490 59999
L29490 59606
L29528 59662
L29565 59699
L29603 59718
" />
<path d="M29134 59606
L29096 59606
L29059 59624
L29040 59643
L29021 59681
L29003 59756
L29003 59849
L29021 59924
L29040 59962
L29059 59981
L29096 59999
L29134 59999
L29171 59981
L29190 59962
L29209 59924
L29228 59849
L29228 59756
L29209 59681
L29190 59643
L29171 59624
L29134 59606
" />
<path d="M34928 28499
L34928 28106
L34834 28106
L34778 28124
L34740 28162
L34721 28199
L34703 28274
L34703 28331
L34721 28406
L34740 28443
L34778 28481
L34834 28499
L34928 28499
" />
<path d="M34328 28499
L34553 28499
" />
<path d="M34440 28499
L34440 28106
L34478 28162
L34515 28199
L34553 28218
" />
<path d="M33953 28499
L34178 28499
" />
<path d="M34065 28499
L34065 28106
L34103 28162
L34140 28199
L34178 28218
" />
<path d="M38728 36299
L38728 35906
L38634 35906
L38578 35924
L38540 35962
L38521 35999
L38503 36074
L38503 36131
L38521 36206
L38540 36243
L38578 36281
L38634 36299
L38728 36299
" />
<path d="M38128 36299
L38353 36299
" />
<path d="M38240 36299
L38240 35906
L38278 35962
L38315 35999
L38353 36018
" />
<path d="M37978 35943
L37959 35924
L37921 35906
L37828 35906
L37790 35924
L37771 35943
L37753 35981
L37753 36018
L37771 36074
L37996 36299
L37753 36299
" />
<path d="M40628 44199
L40628 43806
L40534 43806
L40478 43824
L40440 43862
L40421 43899
L40403 43974
L40403 44031
L40421 44106
L40440 44143
L40478 44181
L40534 44199
L40628 44199
" />
<path d="M40028 44199
L40253 44199
" />
<path d="M40140 44199
L40140 43806
L40178 43862
L40215 43899
L40253 43918
" />
<path d="M39896 43806
L39653 43806
L39784 43956
L39728 43956
L39690 43974
L39671 43993
L39653 44031
L39653 44124
L39671 44162
L39690 44181
L39728 44199
L39840 44199
L39878 44181
L39896 44162
" />
<path d="M36678 52099
L36678 51706
L36584 51706
L36528 51724
L36490 51762
L36471 51799
L36453 51874
L36453 51931
L36471 52006
L36490 52043
L36528 52081
L36584 52099
L36678 52099
" />
<path d="M36078 52099
L36303 52099
" />
<path d="M36190 52099
L36190 51706
L36228 51762
L36265 51799
L36303 51818
" />
<path d="M35740 51837
L35740 52099
" />
<path d="M35834 51687
L35928 51968
L35684 51968
" />
<path d="M39928 59999
L39928 59606
L39834 59606
L39778 59624
L39740 59662
L39721 59699
L39703 59774
L39703 59831
L39721 59906
L39740 59943
L39778 59981
L39834 59999
L39928 59999
" />
<path d="M39328 59999
L39553 59999
" />
<path d="M39440 59999
L39440 59606
L39478 59662
L39515 59699
L39553 59718
" />
<path d="M38971 59606
L39159 59606
L39178 59793
L39159 59774
L39121 59756
L39028 59756
L38990 59774
L38971 59793
L38953 59831
L38953 59924
L38971 59962
L38990 59981
L39028 59999
L39121 59999
L39159 59981
L39178 59962
" />
<path d="M42828 28499
L42828 28106
L42734 28106
L42678 28124
L42640 28162
L42621 28199
L42603 28274
L42603 28331
L42621 28406
L42640 28443
L42678 28481
L42734 28499
L42828 28499
" />
<path d="M42228 28499
L42453 28499
" />
<path d="M42340 28499
L42340 28106
L42378 28162
L42415 28199
L42453 28218
" />
<path d="M41890 28106
L41965 28106
L42003 28124
L42021 28143
L42059 28199
L42078 28274
L42078 28424
L42059 28462
L42040 28481
L42003 28499
L41928 28499
L41890 28481
L41871 28462
L41853 28424
L41853 28331
L41871 28293
L41890 28274
L41928 28256
L42003 28256
L42040 28274
L42059 28293
L42078 28331
" />
<path d="M46478 36299
L46478 35906
L46384 35906
L46328 35924
L46290 35962
L46271 35999
L46253 36074
L46253 36131
L46271 36206
L46290 36243
L46328 36281
L46384 36299
L46478 36299
" />
<path d="M45878 36299
L46103 36299
" />
<path d="M45990 36299
L45990 35906
L46028 35962
L46065 35999
L46103 36018
" />
<path d="M45746 35906
L45484 35906
L45653 36299
" />
<path d="M48528 44199
L48528 43806
L48434 43806
L48378 43824
L48340 43862
L48321 43899
L48303 43974
L48303 44031
L48321 44106
L48340 44143
L48378 44181
L48434 44199
L48528 44199
" />
<path d="M47928 44199
L48153 44199
" />
<path d="M48040 44199
L48040 43806
L48078 43862
L48115 43899
L48153 43918
" />
<path d="M47703 43974
L47740 43956
L47759 43937
L47778 43899
L47778 43881
L47759 43843
L47740 43824
L47703 43806
L47628 43806
L47590 43824
L47571 43843
L47553 43881
L47553 43899
L47571 43937
L47590 43956
L47628 43974
L47703 43974
L47740 43993
L47759 44012
L47778 44049
L47778 44124
L47759 44162
L47740 44181
L47703 44199
L47628 44199
L47590 44181
L47571 44162
L47553 44124
L47553 44049
L47571 44012
L47590 43993
L47628 43974
" />
<path d="M44378 52149
L44378 51756
L44284 51756
L44228 51774
L44190 51812
L44171 51849
L44153 51924
L44153 51981
L44171 52056
L44190 52093
L44228 52131
L44284 52149
L44378 52149
" />
<path d="M43778 52149
L44003 52149
" />
<path d="M43890 52149
L43890 51756
L43928 51812
L43965 51849
L44003 51868
" />
<path d="M43590 52149
L43515 52149
L43478 52131
L43459 52112
L43421 52056
L43403 51981
L43403 51831
L43421 51793
L43440 51774
L43478 51756
L43553 51756
L43590 51774
L43609 51793
L43628 51831
L43628 51924
L43609 51962
L43590 51981
L43553 51999
L43478 51999
L43440 51981
L43421 51962
L43403 51924
" />
<path d="M50678 28349
L50678 27956
L50584 27956
L50528 27974
L50490 28012
L50471 28049
L50453 28124
L50453 28181
L50471 28256
L50490 28293
L50528 28331
L50584 28349
L50678 28349
" />
<path d="M50303 27993
L50284 27974
L50246 27956
L50153 27956
L50115 27974
L50096 27993
L50078 28031
L50078 28068
L50096 28124
L50321 28349
L50078 28349
" />
<path d="M49834 27956
L49796 27956
L49759 27974
L49740 27993
L49721 28031
L49703 28106
L49703 28199
L49721 28274
L49740 28312
L49759 28331
L49796 28349
L49834 28349
L49871 28331
L49890 28312
L49909 28274
L49928 28199
L49928 28106
L49909 28031
L49890 27993
L49871 27974
L49834 27956
" />
<path d="M54328 36299
L54328 35906
L54234 35906
L54178 35924
L54140 35962
L54121 35999
L54103 36074
L54103 36131
L54121 36206
L54140 36243
L54178 36281
L54234 36299
L54328 36299
" />
<path d="M53953 35943
L53934 35924
L53896 35906
L53803 35906
L53765 35924
L53746 35943
L53728 35981
L53728 36018
L53746 36074
L53971 36299
L53728 36299
" />
<path d="M53353 36299
L53578 36299
" />
<path d="M53465 36299
L53465 35906
L53503 35962
L53540 35999
L53578 36018
" />
<path d="M56378 44199
L56378 43806
L56284 43806
L56228 43824
L56190 43862
L56171 43899
L56153 43974
L56153 44031
L56171 44106
L56190 44143
L56228 44181
L56284 44199
L56378 44199
" />
<path d="M56003 43843
L55984 43824
L55946 43806
L55853 43806
L55815 43824
L55796 43843
L55778 43881
L55778 43918
L55796 43974
L56021 44199
L55778 44199
" />
<path d="M55628 43843
L55609 43824
L55571 43806
L55478 43806
L55440 43824
L55421 43843
L55403 43881
L55403 43918
L55421 43974
L55646 44199
L55403 44199
" />
<path d="M52478 52149
L52478 51756
L52384 51756
L52328 51774
L52290 51812
L52271 51849
L52253 51924
L52253 51981
L52271 52056
L52290 52093
L52328 52131
L52384 52149
L52478 52149
" />
<path d="M52103 51793
L52084 51774
L52046 51756
L51953 51756
L51915 51774
L51896 51793
L51878 51831
L51878 51868
L51896 51924
L52121 52149
L51878 52149
" />
<path d="M51746 51756
L51503 51756
L51634 51906
L51578 51906
L51540 51924
L51521 51943
L51503 51981
L51503 52074
L51521 52112
L51540 52131
L51578 52149
L51690 52149
L51728 52131
L51746 52112
" />
<path d="M58428 28249
L58428 27856
L58334 27856
L58278 27874
L58240 27912
L58221 27949
L58203 28024
L58203 28081
L58221 28156
L58240 28193
L58278 28231
L58334 28249
L58428 28249
" />
<path d="M58053 27893
L58034 27874
L57996 27856
L57903 27856
L57865 27874
L57846 27893
L57828 27931
L57828 27968
L57846 28024
L58071 28249
L57828 28249
" />
<path d="M57490 27987
L57490 28249
" />
<path d="M57584 27837
L57678 28118
L57434 28118
" />
<path d="M62178 36249
L62178 35856
L62084 35856
L62028 35874
L61990 35912
L61971 35949
L61953 36024
L61953 36081
L61971 36156
L61990 36193
L62028 36231
L62084 36249
L62178 36249
" />
<path d="M61803 35893
L61784 35874
L61746 35856
L61653 35856
L61615 35874
L61596 35893
L61578 35931
L61578 35968
L61596 36024
L61821 36249
L61578 36249
" />
<path d="M61221 35856
L61409 35856
L61428 36043
L61409 36024
L61371 36006
L61278 36006
L61240 36024
L61221 36043
L61203 36081
L61203 36174
L61221 36212
L61240 36231
L61278 36249
L61371 36249
L61409 36231
L61428 36212
" />
<path d="M64228 44199
L64228 43806
L64134 43806
L64078 43824
L64040 43862
L64021 43899
L64003 43974
L64003 44031
L64021 44106
L64040 44143
L64078 44181
L64134 44199
L64228 44199
" />
<path d="M63853 43843
L63834 43824
L63796 43806
L63703 43806
L63665 43824
L63646 43843
L63628 43881
L63628 43918
L63646 43974
L63871 44199
L63628 44199
" />
<path d="M63290 43806
L63365 43806
L63403 43824
L63421 43843
L63459 43899
L63478 43974
L63478 44124
L63459 44162
L63440 44181
L63403 44199
L63328 44199
L63290 44181
L63271 44162
L63253 44124
L63253 44031
L63271 43993
L63290 43974
L63328 43956
L63403 43956
L63440 43974
L63459 43993
L63478 44031
" />
<path d="M60178 52199
L60178 51806
L60084 51806
L60028 51824
L59990 51862
L59971 51899
L59953 51974
L59953 52031
L59971 52106
L59990 52143
L60028 52181
L60084 52199
L60178 52199
" />
<path d="M59803 51843
L59784 51824
L59746 51806
L59653 51806
L59615 51824
L59596 51843
L59578 51881
L59578 51918
L59596 51974
L59821 52199
L59578 52199
" />
<path d="M59446 51806
L59184 51806
L59353 52199
" />
<path d="M66428 28299
L66428 27906
L66334 27906
L66278 27924
L66240 27962
L66221 27999
L66203 28074
L66203 28131
L66221 28206
L66240 28243
L66278 28281
L66334 28299
L66428 28299
" />
<path d="M66053 27943
L66034 27924
L65996 27906
L65903 27906
L65865 27924
L65846 27943
L65828 27981
L65828 28018
L65846 28074
L66071 28299
L65828 28299
" />
<path d="M65603 28074
L65640 28056
L65659 28037
L65678 27999
L65678 27981
L65659 27943
L65640 27924
L65603 27906
L65528 27906
L65490 27924
L65471 27943
L65453 27981
L65453 27999
L65471 28037
L65490 28056
L65528 28074
L65603 28074
L65640 28093
L65659 28112
L65678 28149
L65678 28224
L65659 28262
L65640 28281
L65603 28299
L65528 28299
L65490 28281
L65471 28262
L65453 28224
L65453 28149
L65471 28112
L65490 28093
L65528 28074
" />
<path d="M70178 36249
L70178 35856
L70084 35856
L70028 35874
L69990 35912
L69971 35949
L69953 36024
L69953 36081
L69971 36156
L69990 36193
L70028 36231
L70084 36249
L70178 36249
" />
<path d="M69803 35893
L69784 35874
L69746 35856
L69653 35856
L69615 35874
L69596 35893
L69578 35931
L69578 35968
L69596 36024
L69821 36249
L69578 36249
" />
<path d="M69390 36249
L69315 36249
L69278 36231
L69259 36212
L69221 36156
L69203 36081
L69203 35931
L69221 35893
L69240 35874
L69278 35856
L69353 35856
L69390 35874
L69409 35893
L69428 35931
L69428 36024
L69409 36062
L69390 36081
L69353 36099
L69278 36099
L69240 36081
L69221 36062
L69203 36024
" />
<path d="M72278 44199
L72278 43806
L72184 43806
L72128 43824
L72090 43862
L72071 43899
L72053 43974
L72053 44031
L72071 44106
L72090 44143
L72128 44181
L72184 44199
L72278 44199
" />
<path d="M71921 43806
L71678 43806
L71809 43956
L71753 43956
L71715 43974
L71696 43993
L71678 44031
L71678 44124
L71696 44162
L71715 44181
L71753 44199
L71865 44199
L71903 44181
L71921 44162
" />
<path d="M71434 43806
L71396 43806
L71359 43824
L71340 43843
L71321 43881
L71303 43956
L71303 44049
L71321 44124
L71340 44162
L71359 44181
L71396 44199
L71434 44199
L71471 44181
L71490 44162
L71509 44124
L71528 44049
L71528 43956
L71509 43881
L71490 43843
L71471 43824
L71434 43806
" />
<path d="M68178 52199
L68178 51806
L68084 51806
L68028 51824
L67990 51862
L67971 51899
L67953 51974
L67953 52031
L67971 52106
L67990 52143
L68028 52181
L68084 52199
L68178 52199
" />
<path d="M67821 51806
L67578 51806
L67709 51956
L67653 51956
L67615 51974
L67596 51993
L67578 52031
L67578 52124
L67596 52162
L67615 52181
L67653 52199
L67765 52199
L67803 52181
L67821 52162
" />
<path d="M67203 52199
L67428 52199
" />
<path d="M67315 52199
L67315 51806
L67353 51862
L67390 51899
L67428 51918
" />
<path d="M68378 59999
L68378 59606
L68284 59606
L68228 59624
L68190 59662
L68171 59699
L68153 59774
L68153 59831
L68171 59906
L68190 59943
L68228 59981
L68284 59999
L68378 59999
" />
<path d="M68021 59606
L67778 59606
L67909 59756
L67853 59756
L67815 59774
L67796 59793
L67778 59831
L67778 59924
L67796 59962
L67815 59981
L67853 59999
L67965 59999
L68003 59981
L68021 59962
" />
<path d="M67628 59643
L67609 59624
L67571 59606
L67478 59606
L67440 59624
L67421 59643
L67403 59681
L67403 59718
L67421 59774
L67646 59999
L67403 59999
" />
<path d="M74178 28249
L74178 27856
L74084 27856
L74028 27874
L73990 27912
L73971 27949
L73953 28024
L73953 28081
L73971 28156
L73990 28193
L74028 28231
L74084 28249
L74178 28249
" />
<path d="M73821 27856
L73578 27856
L73709 28006
L73653 28006
L73615 28024
L73596 28043
L73578 28081
L73578 28174
L73596 28212
L73615 28231
L73653 28249
L73765 28249
L73803 28231
L73821 28212
" />
<path d="M73446 27856
L73203 27856
L73334 28006
L73278 28006
L73240 28024
L73221 28043
L73203 28081
L73203 28174
L73221 28212
L73240 28231
L73278 28249
L73390 28249
L73428 28231
L73446 28212
" />
<path d="M77928 36299
L77928 35906
L77834 35906
L77778 35924
L77740 35962
L77721 35999
L77703 36074
L77703 36131
L77721 36206
L77740 36243
L77778 36281
L77834 36299
L77928 36299
" />
<path d="M77571 35906
L77328 35906
L77459 36056
L77403 36056
L77365 36074
L77346 36093
L77328 36131
L77328 36224
L77346 36262
L77365 36281
L77403 36299
L77515 36299
L77553 36281
L77571 36262
" />
<path d="M76990 36037
L76990 36299
" />
<path d="M77084 35887
L77178 36168
L76934 36168
" />
<path d="M80028 44149
L80028 43756
L79934 43756
L79878 43774
L79840 43812
L79821 43849
L79803 43924
L79803 43981
L79821 44056
L79840 44093
L79878 44131
L79934 44149
L80028 44149
" />
<path d="M79671 43756
L79428 43756
L79559 43906
L79503 43906
L79465 43924
L79446 43943
L79428 43981
L79428 44074
L79446 44112
L79465 44131
L79503 44149
L79615 44149
L79653 44131
L79671 44112
" />
<path d="M79071 43756
L79259 43756
L79278 43943
L79259 43924
L79221 43906
L79128 43906
L79090 43924
L79071 43943
L79053 43981
L79053 44074
L79071 44112
L79090 44131
L79128 44149
L79221 44149
L79259 44131
L79278 44112
" />
<path d="M75978 52199
L75978 51806
L75884 51806
L75828 51824
L75790 51862
L75771 51899
L75753 51974
L75753 52031
L75771 52106
L75790 52143
L75828 52181
L75884 52199
L75978 52199
" />
<path d="M75621 51806
L75378 51806
L75509 51956
L75453 51956
L75415 51974
L75396 51993
L75378 52031
L75378 52124
L75396 52162
L75415 52181
L75453 52199
L75565 52199
L75603 52181
L75621 52162
" />
<path d="M75040 51806
L75115 51806
L75153 51824
L75171 51843
L75209 51899
L75228 51974
L75228 52124
L75209 52162
L75190 52181
L75153 52199
L75078 52199
L75040 52181
L75021 52162
L75003 52124
L75003 52031
L75021 51993
L75040 51974
L75078 51956
L75153 51956
L75190 51974
L75209 51993
L75228 52031
" />
<path d="M82228 28249
L82228 27856
L82134 27856
L82078 27874
L82040 27912
L82021 27949
L82003 28024
L82003 28081
L82021 28156
L82040 28193
L82078 28231
L82134 28249
L82228 28249
" />
<path d="M81871 27856
L81628 27856
L81759 28006
L81703 28006
L81665 28024
L81646 28043
L81628 28081
L81628 28174
L81646 28212
L81665 28231
L81703 28249
L81815 28249
L81853 28231
L81871 28212
" />
<path d="M81496 27856
L81234 27856
L81403 28249
" />
<path d="M85828 36299
L85828 35906
L85734 35906
L85678 35924
L85640 35962
L85621 35999
L85603 36074
L85603 36131
L85621 36206
L85640 36243
L85678 36281
L85734 36299
L85828 36299
" />
<path d="M85471 35906
L85228 35906
L85359 36056
L85303 36056
L85265 36074
L85246 36093
L85228 36131
L85228 36224
L85246 36262
L85265 36281
L85303 36299
L85415 36299
L85453 36281
L85471 36262
" />
<path d="M85003 36074
L85040 36056
L85059 36037
L85078 35999
L85078 35981
L85059 35943
L85040 35924
L85003 35906
L84928 35906
L84890 35924
L84871 35943
L84853 35981
L84853 35999
L84871 36037
L84890 36056
L84928 36074
L85003 36074
L85040 36093
L85059 36112
L85078 36149
L85078 36224
L85059 36262
L85040 36281
L85003 36299
L84928 36299
L84890 36281
L84871 36262
L84853 36224
L84853 36149
L84871 36112
L84890 36093
L84928 36074
" />
<path d="M87978 44149
L87978 43756
L87884 43756
L87828 43774
L87790 43812
L87771 43849
L87753 43924
L87753 43981
L87771 44056
L87790 44093
L87828 44131
L87884 44149
L87978 44149
" />
<path d="M87621 43756
L87378 43756
L87509 43906
L87453 43906
L87415 43924
L87396 43943
L87378 43981
L87378 44074
L87396 44112
L87415 44131
L87453 44149
L87565 44149
L87603 44131
L87621 44112
" />
<path d="M87190 44149
L87115 44149
L87078 44131
L87059 44112
L87021 44056
L87003 43981
L87003 43831
L87021 43793
L87040 43774
L87078 43756
L87153 43756
L87190 43774
L87209 43793
L87228 43831
L87228 43924
L87209 43962
L87190 43981
L87153 43999
L87078 43999
L87040 43981
L87021 43962
L87003 43924
" />
<path d="M84078 52149
L84078 51756
L83984 51756
L83928 51774
L83890 51812
L83871 51849
L83853 51924
L83853 51981
L83871 52056
L83890 52093
L83928 52131
L83984 52149
L84078 52149
" />
<path d="M83515 51887
L83515 52149
" />
<path d="M83609 51737
L83703 52018
L83459 52018
" />
<path d="M83234 51756
L83196 51756
L83159 51774
L83140 51793
L83121 51831
L83103 51906
L83103 51999
L83121 52074
L83140 52112
L83159 52131
L83196 52149
L83234 52149
L83271 52131
L83290 52112
L83309 52074
L83328 51999
L83328 51906
L83309 51831
L83290 51793
L83271 51774
L83234 51756
" />
<path d="M90128 28299
L90128 27906
L90034 27906
L89978 27924
L89940 27962
L89921 27999
L89903 28074
L89903 28131
L89921 28206
L89940 28243
L89978 28281
L90034 28299
L90128 28299
" />
<path d="M89565 28037
L89565 28299
" />
<path d="M89659 27887
L89753 28168
L89509 28168
" />
<path d="M89153 28299
L89378 28299
" />
<path d="M89265 28299
L89265 27906
L89303 27962
L89340 27999
L89378 28018
" />
<path d="M93778 36299
L93778 35906
L93684 35906
L93628 35924
L93590 35962
L93571 35999
L93553 36074
L93553 36131
L93571 36206
L93590 36243
L93628 36281
L93684 36299
L93778 36299
" />
<path d="M93215 36037
L93215 36299
" />
<path d="M93309 35887
L93403 36168
L93159 36168
" />
<path d="M93028 35943
L93009 35924
L92971 35906
L92878 35906
L92840 35924
L92821 35943
L92803 35981
L92803 36018
L92821 36074
L93046 36299
L92803 36299
" />
<path d="M95828 44199
L95828 43806
L95734 43806
L95678 43824
L95640 43862
L95621 43899
L95603 43974
L95603 44031
L95621 44106
L95640 44143
L95678 44181
L95734 44199
L95828 44199
" />
<path d="M95265 43937
L95265 44199
" />
<path d="M95359 43787
L95453 44068
L95209 44068
" />
<path d="M95096 43806
L94853 43806
L94984 43956
L94928 43956
L94890 43974
L94871 43993
L94853 44031
L94853 44124
L94871 44162
L94890 44181
L94928 44199
L95040 44199
L95078 44181
L95096 44162
" />
<path d="M91828 52099
L91828 51706
L91734 51706
L91678 51724
L91640 51762
L91621 51799
L91603 51874
L91603 51931
L91621 52006
L91640 52043
L91678 52081
L91734 52099
L91828 52099
" />
<path d="M91265 51837
L91265 52099
" />
<path d="M91359 51687
L91453 51968
L91209 51968
" />
<path d="M90890 51837
L90890 52099
" />
<path d="M90984 51687
L91078 51968
L90834 51968
" />
<path d="M97978 28249
L97978 27856
L97884 27856
L97828 27874
L97790 27912
L97771 27949
L97753 28024
L97753 28081
L97771 28156
L97790 28193
L97828 28231
L97884 28249
L97978 28249
" />
<path d="M97415 27987
L97415 28249
" />
<path d="M97509 27837
L97603 28118
L97359 28118
" />
<path d="M97021 27856
L97209 27856
L97228 28043
L97209 28024
L97171 28006
L97078 28006
L97040 28024
L97021 28043
L97003 28081
L97003 28174
L97021 28212
L97040 28231
L97078 28249
L97171 28249
L97209 28231
L97228 28212
" />
<path d="M101778 36249
L101778 35856
L101684 35856
L101628 35874
L101590 35912
L101571 35949
L101553 36024
L101553 36081
L101571 36156
L101590 36193
L101628 36231
L101684 36249
L101778 36249
" />
<path d="M101215 35987
L101215 36249
" />
<path d="M101309 35837
L101403 36118
L101159 36118
" />
<path d="M100840 35856
L100915 35856
L100953 35874
L100971 35893
L101009 35949
L101028 36024
L101028 36174
L101009 36212
L100990 36231
L100953 36249
L100878 36249
L100840 36231
L100821 36212
L100803 36174
L100803 36081
L100821 36043
L100840 36024
L100878 36006
L100953 36006
L100990 36024
L101009 36043
L101028 36081
" />
<path d="M103828 44149
L103828 43756
L103734 43756
L103678 43774
L103640 43812
L103621 43849
L103603 43924
L103603 43981
L103621 44056
L103640 44093
L103678 44131
L103734 44149
L103828 44149
" />
<path d="M103265 43887
L103265 44149
" />
<path d="M103359 43737
L103453 44018
L103209 44018
" />
<path d="M103096 43756
L102834 43756
L103003 44149
" />
<path d="M99728 52099
L99728 51706
L99634 51706
L99578 51724
L99540 51762
L99521 51799
L99503 51874
L99503 51931
L99521 52006
L99540 52043
L99578 52081
L99634 52099
L99728 52099
" />
<path d="M99165 51837
L99165 52099
" />
<path d="M99259 51687
L99353 51968
L99109 51968
" />
<path d="M98903 51874
L98940 51856
L98959 51837
L98978 51799
L98978 51781
L98959 51743
L98940 51724
L98903 51706
L98828 51706
L98790 51724
L98771 51743
L98753 51781
L98753 51799
L98771 51837
L98790 51856
L98828 51874
L98903 51874
L98940 51893
L98959 51912
L98978 51949
L98978 52024
L98959 52062
L98940 52081
L98903 52099
L98828 52099
L98790 52081
L98771 52062
L98753 52024
L98753 51949
L98771 51912
L98790 51893
L98828 51874
" />
<path d="M97028 59949
L97028 59556
L96934 59556
L96878 59574
L96840 59612
L96821 59649
L96803 59724
L96803 59781
L96821 59856
L96840 59893
L96878 59931
L96934 59949
L97028 59949
" />
<path d="M96465 59687
L96465 59949
" />
<path d="M96559 59537
L96653 59818
L96409 59818
" />
<path d="M96240 59949
L96165 59949
L96128 59931
L96109 59912
L96071 59856
L96053 59781
L96053 59631
L96071 59593
L96090 59574
L96128 59556
L96203 59556
L96240 59574
L96259 59593
L96278 59631
L96278 59724
L96259 59762
L96240 59781
L96203 59799
L96128 59799
L96090 59781
L96071 59762
L96053 59724
" />
<path d="M105728 28249
L105728 27856
L105634 27856
L105578 27874
L105540 27912
L105521 27949
L105503 28024
L105503 28081
L105521 28156
L105540 28193
L105578 28231
L105634 28249
L105728 28249
" />
<path d="M105146 27856
L105334 27856
L105353 28043
L105334 28024
L105296 28006
L105203 28006
L105165 28024
L105146 28043
L105128 28081
L105128 28174
L105146 28212
L105165 28231
L105203 28249
L105296 28249
L105334 28231
L105353 28212
" />
<path d="M104884 27856
L104846 27856
L104809 27874
L104790 27893
L104771 27931
L104753 28006
L104753 28099
L104771 28174
L104790 28212
L104809 28231
L104846 28249
L104884 28249
L104921 28231
L104940 28212
L104959 28174
L104978 28099
L104978 28006
L104959 27931
L104940 27893
L104921 27874
L104884 27856
" />
<path d="M109578 36249
L109578 35856
L109484 35856
L109428 35874
L109390 35912
L109371 35949
L109353 36024
L109353 36081
L109371 36156
L109390 36193
L109428 36231
L109484 36249
L109578 36249
" />
<path d="M108996 35856
L109184 35856
L109203 36043
L109184 36024
L109146 36006
L109053 36006
L109015 36024
L108996 36043
L108978 36081
L108978 36174
L108996 36212
L109015 36231
L109053 36249
L109146 36249
L109184 36231
L109203 36212
" />
<path d="M108603 36249
L108828 36249
" />
<path d="M108715 36249
L108715 35856
L108753 35912
L108790 35949
L108828 35968
" />
<path d="M111728 44099
L111728 43706
L111634 43706
L111578 43724
L111540 43762
L111521 43799
L111503 43874
L111503 43931
L111521 44006
L111540 44043
L111578 44081
L111634 44099
L111728 44099
" />
<path d="M111146 43706
L111334 43706
L111353 43893
L111334 43874
L111296 43856
L111203 43856
L111165 43874
L111146 43893
L111128 43931
L111128 44024
L111146 44062
L111165 44081
L111203 44099
L111296 44099
L111334 44081
L111353 44062
" />
<path d="M110978 43743
L110959 43724
L110921 43706
L110828 43706
L110790 43724
L110771 43743
L110753 43781
L110753 43818
L110771 43874
L110996 44099
L110753 44099
" />
<path d="M107628 52049
L107628 51656
L107534 51656
L107478 51674
L107440 51712
L107421 51749
L107403 51824
L107403 51881
L107421 51956
L107440 51993
L107478 52031
L107534 52049
L107628 52049
" />
<path d="M107046 51656
L107234 51656
L107253 51843
L107234 51824
L107196 51806
L107103 51806
L107065 51824
L107046 51843
L107028 51881
L107028 51974
L107046 52012
L107065 52031
L107103 52049
L107196 52049
L107234 52031
L107253 52012
" />
<path d="M106896 51656
L106653 51656
L106784 51806
L106728 51806
L106690 51824
L106671 51843
L106653 51881
L106653 51974
L106671 52012
L106690 52031
L106728 52049
L106840 52049
L106878 52031
L106896 52012
" />
<path d="M105828 59999
L105828 59606
L105734 59606
L105678 59624
L105640 59662
L105621 59699
L105603 59774
L105603 59831
L105621 59906
L105640 59943
L105678 59981
L105734 59999
L105828 59999
" />
<path d="M105246 59606
L105434 59606
L105453 59793
L105434 59774
L105396 59756
L105303 59756
L105265 59774
L105246 59793
L105228 59831
L105228 59924
L105246 59962
L105265 59981
L105303 59999
L105396 59999
L105434 59981
L105453 59962
" />
<path d="M104890 59737
L104890 59999
" />
<path d="M104984 59587
L105078 59868
L104834 59868
" />
<path d="M113628 28199
L113628 27806
L113534 27806
L113478 27824
L113440 27862
L113421 27899
L113403 27974
L113403 28031
L113421 28106
L113440 28143
L113478 28181
L113534 28199
L113628 28199
" />
<path d="M113046 27806
L113234 27806
L113253 27993
L113234 27974
L113196 27956
L113103 27956
L113065 27974
L113046 27993
L113028 28031
L113028 28124
L113046 28162
L113065 28181
L113103 28199
L113196 28199
L113234 28181
L113253 28162
" />
<path d="M112671 27806
L112859 27806
L112878 27993
L112859 27974
L112821 27956
L112728 27956
L112690 27974
L112671 27993
L112653 28031
L112653 28124
L112671 28162
L112690 28181
L112728 28199
L112821 28199
L112859 28181
L112878 28162
" />
<path d="M117678 36249
L117678 35856
L117584 35856
L117528 35874
L117490 35912
L117471 35949
L117453 36024
L117453 36081
L117471 36156
L117490 36193
L117528 36231
L117584 36249
L117678 36249
" />
<path d="M117096 35856
L117284 35856
L117303 36043
L117284 36024
L117246 36006
L117153 36006
L117115 36024
L117096 36043
L117078 36081
L117078 36174
L117096 36212
L117115 36231
L117153 36249
L117246 36249
L117284 36231
L117303 36212
" />
<path d="M116740 35856
L116815 35856
L116853 35874
L116871 35893
L116909 35949
L116928 36024
L116928 36174
L116909 36212
L116890 36231
L116853 36249
L116778 36249
L116740 36231
L116721 36212
L116703 36174
L116703 36081
L116721 36043
L116740 36024
L116778 36006
L116853 36006
L116890 36024
L116909 36043
L116928 36081
" />
<path d="M124578 44099
L124578 43706
L124484 43706
L124428 43724
L124390 43762
L124371 43799
L124353 43874
L124353 43931
L124371 44006
L124390 44043
L124428 44081
L124484 44099
L124578 44099
" />
<path d="M123996 43706
L124184 43706
L124203 43893
L124184 43874
L124146 43856
L124053 43856
L124015 43874
L123996 43893
L123978 43931
L123978 44024
L123996 44062
L124015 44081
L124053 44099
L124146 44099
L124184 44081
L124203 44062
" />
<path d="M123846 43706
L123584 43706
L123753 44099
" />
<path d="M115478 52049
L115478 51656
L115384 51656
L115328 51674
L115290 51712
L115271 51749
L115253 51824
L115253 51881
L115271 51956
L115290 51993
L115328 52031
L115384 52049
L115478 52049
" />
<path d="M114896 51656
L115084 51656
L115103 51843
L115084 51824
L115046 51806
L114953 51806
L114915 51824
L114896 51843
L114878 51881
L114878 51974
L114896 52012
L114915 52031
L114953 52049
L115046 52049
L115084 52031
L115103 52012
" />
<path d="M114653 51824
L114690 51806
L114709 51787
L114728 51749
L114728 51731
L114709 51693
L114690 51674
L114653 51656
L114578 51656
L114540 51674
L114521 51693
L114503 51731
L114503 51749
L114521 51787
L114540 51806
L114578 51824
L114653 51824
L114690 51843
L114709 51862
L114728 51899
L114728 51974
L114709 52012
L114690 52031
L114653 52049
L114578 52049
L114540 52031
L114521 52012
L114503 51974
L114503 51899
L114521 51862
L114540 51843
L114578 51824
" />
<path d="M113778 59999
L113778 59606
L113684 59606
L113628 59624
L113590 59662
L113571 59699
L113553 59774
L113553 59831
L113571 59906
L113590 59943
L113628 59981
L113684 59999
L113778 59999
" />
<path d="M113196 59606
L113384 59606
L113403 59793
L113384 59774
L113346 59756
L113253 59756
L113215 59774
L113196 59793
L113178 59831
L113178 59924
L113196 59962
L113215 59981
L113253 59999
L113346 59999
L113384 59981
L113403 59962
" />
<path d="M112990 59999
L112915 59999
L112878 59981
L112859 59962
L112821 59906
L112803 59831
L112803 59681
L112821 59643
L112840 59624
L112878 59606
L112953 59606
L112990 59624
L113009 59643
L113028 59681
L113028 59774
L113009 59812
L112990 59831
L112953 59849
L112878 59849
L112840 59831
L112821 59812
L112803 59774
" />
<path d="M125228 28299
L125228 27906
L125134 27906
L125078 27924
L125040 27962
L125021 27999
L125003 28074
L125003 28131
L125021 28206
L125040 28243
L125078 28281
L125134 28299
L125228 28299
" />
<path d="M124665 27906
L124740 27906
L124778 27924
L124796 27943
L124834 27999
L124853 28074
L124853 28224
L124834 28262
L124815 28281
L124778 28299
L124703 28299
L124665 28281
L124646 28262
L124628 28224
L124628 28131
L124646 28093
L124665 28074
L124703 28056
L124778 28056
L124815 28074
L124834 28093
L124853 28131
" />
<path d="M124384 27906
L124346 27906
L124309 27924
L124290 27943
L124271 27981
L124253 28056
L124253 28149
L124271 28224
L124290 28262
L124309 28281
L124346 28299
L124384 28299
L124421 28281
L124440 28262
L124459 28224
L124478 28149
L124478 28056
L124459 27981
L124440 27943
L124421 27924
L124384 27906
" />
<path d="M127128 36199
L127128 35806
L127034 35806
L126978 35824
L126940 35862
L126921 35899
L126903 35974
L126903 36031
L126921 36106
L126940 36143
L126978 36181
L127034 36199
L127128 36199
" />
<path d="M126565 35806
L126640 35806
L126678 35824
L126696 35843
L126734 35899
L126753 35974
L126753 36124
L126734 36162
L126715 36181
L126678 36199
L126603 36199
L126565 36181
L126546 36162
L126528 36124
L126528 36031
L126546 35993
L126565 35974
L126603 35956
L126678 35956
L126715 35974
L126734 35993
L126753 36031
" />
<path d="M126153 36199
L126378 36199
" />
<path d="M126265 36199
L126265 35806
L126303 35862
L126340 35899
L126378 35918
" />
<path d="M126328 51999
L126328 51606
L126234 51606
L126178 51624
L126140 51662
L126121 51699
L126103 51774
L126103 51831
L126121 51906
L126140 51943
L126178 51981
L126234 51999
L126328 51999
" />
<path d="M125765 51606
L125840 51606
L125878 51624
L125896 51643
L125934 51699
L125953 51774
L125953 51924
L125934 51962
L125915 51981
L125878 51999
L125803 51999
L125765 51981
L125746 51962
L125728 51924
L125728 51831
L125746 51793
L125765 51774
L125803 51756
L125878 51756
L125915 51774
L125934 51793
L125953 51831
" />
<path d="M125578 51643
L125559 51624
L125521 51606
L125428 51606
L125390 51624
L125371 51643
L125353 51681
L125353 51718
L125371 51774
L125596 51999
L125353 51999
" />
<path d="M121828 59949
L121828 59556
L121734 59556
L121678 59574
L121640 59612
L121621 59649
L121603 59724
L121603 59781
L121621 59856
L121640 59893
L121678 59931
L121734 59949
L121828 59949
" />
<path d="M121265 59556
L121340 59556
L121378 59574
L121396 59593
L121434 59649
L121453 59724
L121453 59874
L121434 59912
L121415 59931
L121378 59949
L121303 59949
L121265 59931
L121246 59912
L121228 59874
L121228 59781
L121246 59743
L121265 59724
L121303 59706
L121378 59706
L121415 59724
L121434 59743
L121453 59781
" />
<path d="M121096 59556
L120853 59556
L120984 59706
L120928 59706
L120890 59724
L120871 59743
L120853 59781
L120853 59874
L120871 59912
L120890 59931
L120928 59949
L121040 59949
L121078 59931
L121096 59912
" />
</g> 
</svg>
