<?xml version="1.0" standalone="no"?>
 <!DOCTYPE svg PUBLIC "-//W3C//DTD SVG 1.1//EN" 
 "http://www.w3.org/Graphics/SVG/1.1/DTD/svg11.dtd"> 
<svg xmlns="http://www.w3.org/2000/svg" version="1.1" 
    width="41.9989cm" height="29.7002cm" viewBox="0 0 165350 116930 ">
<title>SVG Picture created as keyboard1-F.Paste.svg date 2019/02/10 16:03:45 </title>
  <desc>Picture generated by PCBNEW </desc>
<g style="fill:#000000; fill-opacity:1;stroke:#000000; stroke-opacity:1;
stroke-linecap:round; stroke-linejoin:round; "
 transform="translate(0 0) scale(1 1)">
</g>
<g style="fill:#000000; fill-opacity:0.0; 
stroke:#000000; stroke-width:-0.000393701; stroke-opacity:1; 
stroke-linecap:round; stroke-linejoin:round;">
</g>
<g style="fill:#000000; fill-opacity:0.0; 
stroke:#000000; stroke-width:0; stroke-opacity:1; 
stroke-linecap:round; stroke-linejoin:round;">
</g>
<g style="fill:#000000; fill-opacity:1.0; 
stroke:#000000; stroke-width:0; stroke-opacity:1; 
stroke-linecap:round; stroke-linejoin:round;">
<polyline style="fill-rule:evenodd;"
points="57816,18830
57826,18832
57835,18834
57844,18838
57853,18842
57861,18847
57869,18852
57876,18859
57883,18866
57888,18874
57893,18882
57898,18891
57901,18900
57903,18909
57905,18919
57905,18928
57905,19421
57905,19430
57903,19440
57901,19449
57898,19458
57893,19467
57888,19475
57883,19483
57876,19490
57869,19497
57861,19502
57853,19507
57844,19511
57835,19515
57826,19517
57816,19519
57807,19519
57442,19519
57433,19519
57423,19517
57414,19515
57405,19511
57396,19507
57388,19502
57380,19497
57373,19490
57366,19483
57361,19475
57356,19467
57351,19458
57348,19449
57346,19440
57344,19430
57344,19421
57344,18928
57344,18919
57346,18909
57348,18900
57351,18891
57356,18882
57361,18874
57366,18866
57373,18859
57380,18852
57388,18847
57396,18842
57405,18838
57414,18834
57423,18832
57433,18830
57442,18830
57807,18830
57816,18830
" /> 
<polyline style="fill-rule:evenodd;"
points="58987,18830
58997,18832
59006,18834
59016,18838
59024,18842
59033,18847
59040,18852
59047,18859
59054,18866
59060,18874
59065,18882
59069,18891
59072,18900
59074,18909
59076,18919
59076,18928
59076,19421
59076,19430
59074,19440
59072,19449
59069,19458
59065,19467
59060,19475
59054,19483
59047,19490
59040,19497
59033,19502
59024,19507
59016,19511
59006,19515
58997,19517
58987,19519
58978,19519
58614,19519
58604,19519
58594,19517
58585,19515
58576,19511
58567,19507
58559,19502
58551,19497
58544,19490
58538,19483
58532,19475
58527,19467
58523,19458
58519,19449
58517,19440
58516,19430
58515,19421
58515,18928
58516,18919
58517,18909
58519,18900
58523,18891
58527,18882
58532,18874
58538,18866
58544,18859
58551,18852
58559,18847
58567,18842
58576,18838
58585,18834
58594,18832
58604,18830
58614,18830
58978,18830
58987,18830
" /> 
<polyline style="fill-rule:evenodd;"
points="29877,20955
29886,20957
29896,20959
29905,20963
29914,20967
29922,20972
29930,20977
29937,20984
29943,20991
29949,20999
29954,21007
29958,21016
29961,21025
29964,21034
29965,21044
29966,21053
29966,21546
29965,21555
29964,21565
29961,21574
29958,21583
29954,21592
29949,21600
29943,21608
29937,21615
29930,21622
29922,21627
29914,21632
29905,21636
29896,21640
29886,21642
29877,21644
29867,21644
29503,21644
29493,21644
29484,21642
29474,21640
29465,21636
29457,21632
29448,21627
29441,21622
29433,21615
29427,21608
29421,21600
29416,21592
29412,21583
29409,21574
29407,21565
29405,21555
29405,21546
29405,21053
29405,21044
29407,21034
29409,21025
29412,21016
29416,21007
29421,20999
29427,20991
29433,20984
29441,20977
29448,20972
29457,20967
29465,20963
29474,20959
29484,20957
29493,20955
29503,20955
29867,20955
29877,20955
" /> 
<polyline style="fill-rule:evenodd;"
points="28706,20955
28715,20957
28725,20959
28734,20963
28742,20967
28751,20972
28758,20977
28766,20984
28772,20991
28778,20999
28783,21007
28787,21016
28790,21025
28792,21034
28794,21044
28794,21053
28794,21546
28794,21555
28792,21565
28790,21574
28787,21583
28783,21592
28778,21600
28772,21608
28766,21615
28758,21622
28751,21627
28742,21632
28734,21636
28725,21640
28715,21642
28706,21644
28696,21644
28332,21644
28322,21644
28313,21642
28303,21640
28294,21636
28285,21632
28277,21627
28269,21622
28262,21615
28256,21608
28250,21600
28245,21592
28241,21583
28238,21574
28235,21565
28234,21555
28233,21546
28233,21053
28234,21044
28235,21034
28238,21025
28241,21016
28245,21007
28250,20999
28256,20991
28262,20984
28269,20977
28277,20972
28285,20967
28294,20963
28303,20959
28313,20957
28322,20955
28332,20955
28696,20955
28706,20955
" /> 
<polyline style="fill-rule:evenodd;"
points="57731,21730
57740,21732
57750,21734
57759,21738
57767,21742
57776,21747
57783,21752
57791,21759
57797,21766
57803,21774
57808,21782
57812,21791
57815,21800
57817,21809
57819,21819
57819,21828
57819,22321
57819,22330
57817,22340
57815,22349
57812,22358
57808,22367
57803,22375
57797,22383
57791,22390
57783,22397
57776,22402
57767,22407
57759,22411
57750,22415
57740,22417
57731,22419
57721,22419
57357,22419
57347,22419
57338,22417
57328,22415
57319,22411
57310,22407
57302,22402
57294,22397
57287,22390
57281,22383
57275,22375
57270,22367
57266,22358
57263,22349
57260,22340
57259,22330
57258,22321
57258,21828
57259,21819
57260,21809
57263,21800
57266,21791
57270,21782
57275,21774
57281,21766
57287,21759
57294,21752
57302,21747
57310,21742
57319,21738
57328,21734
57338,21732
57347,21730
57357,21730
57721,21730
57731,21730
" /> 
<polyline style="fill-rule:evenodd;"
points="58902,21730
58911,21732
58921,21734
58930,21738
58939,21742
58947,21747
58955,21752
58962,21759
58968,21766
58974,21774
58979,21782
58983,21791
58986,21800
58989,21809
58990,21819
58991,21828
58991,22321
58990,22330
58989,22340
58986,22349
58983,22358
58979,22367
58974,22375
58968,22383
58962,22390
58955,22397
58947,22402
58939,22407
58930,22411
58921,22415
58911,22417
58902,22419
58892,22419
58528,22419
58518,22419
58509,22417
58499,22415
58490,22411
58482,22407
58473,22402
58466,22397
58458,22390
58452,22383
58446,22375
58441,22367
58437,22358
58434,22349
58432,22340
58430,22330
58430,22321
58430,21828
58430,21819
58432,21809
58434,21800
58437,21791
58441,21782
58446,21774
58452,21766
58458,21759
58466,21752
58473,21747
58482,21742
58490,21738
58499,21734
58509,21732
58518,21730
58528,21730
58892,21730
58902,21730
" /> 
<polyline style="fill-rule:evenodd;"
points="24500,18503
24500,19046
24323,19046
24323,18503
24500,18503
" /> 
<polyline style="fill-rule:evenodd;"
points="24244,18503
24244,19046
24067,19046
24067,18503
24244,18503
" /> 
<polyline style="fill-rule:evenodd;"
points="23988,18503
23988,19046
23811,19046
23811,18503
23988,18503
" /> 
<polyline style="fill-rule:evenodd;"
points="23732,18503
23732,19046
23555,19046
23555,18503
23732,18503
" /> 
<polyline style="fill-rule:evenodd;"
points="23476,18503
23476,19046
23299,19046
23299,18503
23476,18503
" /> 
<polyline style="fill-rule:evenodd;"
points="25159,18219
25159,19046
24579,19046
24579,18219
25159,18219
" /> 
<polyline style="fill-rule:evenodd;"
points="23220,18219
23220,19046
22640,19046
22640,18219
23220,18219
" /> 
<polyline style="fill-rule:evenodd;"
points="25513,17353
25513,18101
24578,18101
24578,17353
25513,17353
" /> 
<polyline style="fill-rule:evenodd;"
points="23221,17353
23221,18101
22286,18101
22286,17353
23221,17353
" /> 
<polyline style="fill-rule:evenodd;"
points="24462,17353
24462,18101
23999,18101
23999,17353
24462,17353
" /> 
<polyline style="fill-rule:evenodd;"
points="23800,17353
23800,18101
23337,18101
23337,17353
23800,17353
" /> 
<polyline style="fill-rule:evenodd;"
points="52658,22814
52441,22814
52441,22223
52658,22223
52658,22814
" /> 
<polyline style="fill-rule:evenodd;"
points="52973,22814
52756,22814
52756,22223
52973,22223
52973,22814
" /> 
<polyline style="fill-rule:evenodd;"
points="53288,22814
53071,22814
53071,22223
53288,22223
53288,22814
" /> 
<polyline style="fill-rule:evenodd;"
points="53603,22814
53386,22814
53386,22223
53603,22223
53603,22814
" /> 
<polyline style="fill-rule:evenodd;"
points="53918,22814
53701,22814
53701,22223
53918,22223
53918,22814
" /> 
<polyline style="fill-rule:evenodd;"
points="54233,22814
54016,22814
54016,22223
54233,22223
54233,22814
" /> 
<polyline style="fill-rule:evenodd;"
points="54548,22814
54331,22814
54331,22223
54548,22223
54548,22814
" /> 
<polyline style="fill-rule:evenodd;"
points="54863,22814
54646,22814
54646,22223
54863,22223
54863,22814
" /> 
<polyline style="fill-rule:evenodd;"
points="55178,22814
54961,22814
54961,22223
55178,22223
55178,22814
" /> 
<polyline style="fill-rule:evenodd;"
points="55493,22814
55276,22814
55276,22223
55493,22223
55493,22814
" /> 
<polyline style="fill-rule:evenodd;"
points="55808,22814
55591,22814
55591,22223
55808,22223
55808,22814
" /> 
<polyline style="fill-rule:evenodd;"
points="56664,21741
56664,21958
56073,21958
56073,21741
56664,21741
" /> 
<polyline style="fill-rule:evenodd;"
points="56664,21426
56664,21643
56073,21643
56073,21426
56664,21426
" /> 
<polyline style="fill-rule:evenodd;"
points="56664,21111
56664,21328
56073,21328
56073,21111
56664,21111
" /> 
<polyline style="fill-rule:evenodd;"
points="56664,20796
56664,21013
56073,21013
56073,20796
56664,20796
" /> 
<polyline style="fill-rule:evenodd;"
points="56664,20481
56664,20698
56073,20698
56073,20481
56664,20481
" /> 
<polyline style="fill-rule:evenodd;"
points="56664,20166
56664,20383
56073,20383
56073,20166
56664,20166
" /> 
<polyline style="fill-rule:evenodd;"
points="56664,19851
56664,20068
56073,20068
56073,19851
56664,19851
" /> 
<polyline style="fill-rule:evenodd;"
points="56664,19536
56664,19753
56073,19753
56073,19536
56664,19536
" /> 
<polyline style="fill-rule:evenodd;"
points="56664,19221
56664,19438
56073,19438
56073,19221
56664,19221
" /> 
<polyline style="fill-rule:evenodd;"
points="56664,18906
56664,19123
56073,19123
56073,18906
56664,18906
" /> 
<polyline style="fill-rule:evenodd;"
points="56664,18591
56664,18808
56073,18808
56073,18591
56664,18591
" /> 
<polyline style="fill-rule:evenodd;"
points="55808,18326
55591,18326
55591,17735
55808,17735
55808,18326
" /> 
<polyline style="fill-rule:evenodd;"
points="55493,18326
55276,18326
55276,17735
55493,17735
55493,18326
" /> 
<polyline style="fill-rule:evenodd;"
points="55178,18326
54961,18326
54961,17735
55178,17735
55178,18326
" /> 
<polyline style="fill-rule:evenodd;"
points="54863,18326
54646,18326
54646,17735
54863,17735
54863,18326
" /> 
<polyline style="fill-rule:evenodd;"
points="54548,18326
54331,18326
54331,17735
54548,17735
54548,18326
" /> 
<polyline style="fill-rule:evenodd;"
points="54233,18326
54016,18326
54016,17735
54233,17735
54233,18326
" /> 
<polyline style="fill-rule:evenodd;"
points="53918,18326
53701,18326
53701,17735
53918,17735
53918,18326
" /> 
<polyline style="fill-rule:evenodd;"
points="53603,18326
53386,18326
53386,17735
53603,17735
53603,18326
" /> 
<polyline style="fill-rule:evenodd;"
points="53288,18326
53071,18326
53071,17735
53288,17735
53288,18326
" /> 
<polyline style="fill-rule:evenodd;"
points="52973,18326
52756,18326
52756,17735
52973,17735
52973,18326
" /> 
<polyline style="fill-rule:evenodd;"
points="52658,18326
52441,18326
52441,17735
52658,17735
52658,18326
" /> 
<polyline style="fill-rule:evenodd;"
points="52176,18591
52176,18808
51585,18808
51585,18591
52176,18591
" /> 
<polyline style="fill-rule:evenodd;"
points="52176,18906
52176,19123
51585,19123
51585,18906
52176,18906
" /> 
<polyline style="fill-rule:evenodd;"
points="52176,19221
52176,19438
51585,19438
51585,19221
52176,19221
" /> 
<polyline style="fill-rule:evenodd;"
points="52176,19536
52176,19753
51585,19753
51585,19536
52176,19536
" /> 
<polyline style="fill-rule:evenodd;"
points="52176,19851
52176,20068
51585,20068
51585,19851
52176,19851
" /> 
<polyline style="fill-rule:evenodd;"
points="52176,20166
52176,20383
51585,20383
51585,20166
52176,20166
" /> 
<polyline style="fill-rule:evenodd;"
points="52176,20481
52176,20698
51585,20698
51585,20481
52176,20481
" /> 
<polyline style="fill-rule:evenodd;"
points="52176,20796
52176,21013
51585,21013
51585,20796
52176,20796
" /> 
<polyline style="fill-rule:evenodd;"
points="52176,21111
52176,21328
51585,21328
51585,21111
52176,21111
" /> 
<polyline style="fill-rule:evenodd;"
points="52176,21426
52176,21643
51585,21643
51585,21426
52176,21426
" /> 
<polyline style="fill-rule:evenodd;"
points="52176,21741
52176,21958
51585,21958
51585,21741
52176,21741
" /> 
<polyline style="fill-rule:evenodd;"
points="59599,21741
59098,21240
59683,20655
60184,21157
59599,21741
" /> 
<polyline style="fill-rule:evenodd;"
points="60407,20934
59905,20433
60490,19848
60991,20349
60407,20934
" /> 
<polyline style="fill-rule:evenodd;"
points="59766,20294
59265,19792
59850,19208
60351,19709
59766,20294
" /> 
<polyline style="fill-rule:evenodd;"
points="58959,21101
58458,20600
59042,20015
59544,20516
58959,21101
" /> 
</g> 
</svg>
