<?xml version="1.0" standalone="no"?>
 <!DOCTYPE svg PUBLIC "-//W3C//DTD SVG 1.1//EN" 
 "http://www.w3.org/Graphics/SVG/1.1/DTD/svg11.dtd"> 
<svg xmlns="http://www.w3.org/2000/svg" version="1.1" 
    width="41.9989cm" height="29.7002cm" viewBox="0 0 165350 116930 ">
<title>SVG Picture created as keyboard1-B.Paste.svg date 2019/02/10 16:03:45 </title>
  <desc>Picture generated by PCBNEW </desc>
<g style="fill:#000000; fill-opacity:1;stroke:#000000; stroke-opacity:1;
stroke-linecap:round; stroke-linejoin:round; "
 transform="translate(0 0) scale(1 1)">
</g>
<g style="fill:#000000; fill-opacity:0.0; 
stroke:#000000; stroke-width:-0.000393701; stroke-opacity:1; 
stroke-linecap:round; stroke-linejoin:round;">
</g>
<g style="fill:#000000; fill-opacity:0.0; 
stroke:#000000; stroke-width:0; stroke-opacity:1; 
stroke-linecap:round; stroke-linejoin:round;">
</g>
<g style="fill:#000000; fill-opacity:1.0; 
stroke:#000000; stroke-width:0; stroke-opacity:1; 
stroke-linecap:round; stroke-linejoin:round;">
<polyline style="fill-rule:evenodd;"
points="18254,28803
18254,29196
17861,29196
17861,28803
18254,28803
" /> 
<polyline style="fill-rule:evenodd;"
points="19238,28803
19238,29196
18845,29196
18845,28803
19238,28803
" /> 
<polyline style="fill-rule:evenodd;"
points="21138,36703
21138,37096
20745,37096
20745,36703
21138,36703
" /> 
<polyline style="fill-rule:evenodd;"
points="20154,36703
20154,37096
19761,37096
19761,36703
20154,36703
" /> 
<polyline style="fill-rule:evenodd;"
points="22188,44553
22188,44946
21795,44946
21795,44553
22188,44553
" /> 
<polyline style="fill-rule:evenodd;"
points="21204,44553
21204,44946
20811,44946
20811,44553
21204,44553
" /> 
<polyline style="fill-rule:evenodd;"
points="22904,52453
22904,52846
22511,52846
22511,52453
22904,52453
" /> 
<polyline style="fill-rule:evenodd;"
points="23888,52453
23888,52846
23495,52846
23495,52453
23888,52453
" /> 
<polyline style="fill-rule:evenodd;"
points="19304,60353
19304,60746
18911,60746
18911,60353
19304,60353
" /> 
<polyline style="fill-rule:evenodd;"
points="20288,60353
20288,60746
19895,60746
19895,60353
20288,60353
" /> 
<polyline style="fill-rule:evenodd;"
points="27138,28853
27138,29246
26745,29246
26745,28853
27138,28853
" /> 
<polyline style="fill-rule:evenodd;"
points="26154,28853
26154,29246
25761,29246
25761,28853
26154,28853
" /> 
<polyline style="fill-rule:evenodd;"
points="31088,36653
31088,37046
30695,37046
30695,36653
31088,36653
" /> 
<polyline style="fill-rule:evenodd;"
points="30104,36653
30104,37046
29711,37046
29711,36653
30104,36653
" /> 
<polyline style="fill-rule:evenodd;"
points="32938,44553
32938,44946
32545,44946
32545,44553
32938,44553
" /> 
<polyline style="fill-rule:evenodd;"
points="31954,44553
31954,44946
31561,44946
31561,44553
31954,44553
" /> 
<polyline style="fill-rule:evenodd;"
points="29204,60353
29204,60746
28811,60746
28811,60353
29204,60353
" /> 
<polyline style="fill-rule:evenodd;"
points="30188,60353
30188,60746
29795,60746
29795,60353
30188,60353
" /> 
<polyline style="fill-rule:evenodd;"
points="35138,28853
35138,29246
34745,29246
34745,28853
35138,28853
" /> 
<polyline style="fill-rule:evenodd;"
points="34154,28853
34154,29246
33761,29246
33761,28853
34154,28853
" /> 
<polyline style="fill-rule:evenodd;"
points="37954,36653
37954,37046
37561,37046
37561,36653
37954,36653
" /> 
<polyline style="fill-rule:evenodd;"
points="38938,36653
38938,37046
38545,37046
38545,36653
38938,36653
" /> 
<polyline style="fill-rule:evenodd;"
points="40838,44553
40838,44946
40445,44946
40445,44553
40838,44553
" /> 
<polyline style="fill-rule:evenodd;"
points="39854,44553
39854,44946
39461,44946
39461,44553
39854,44553
" /> 
<polyline style="fill-rule:evenodd;"
points="36888,52453
36888,52846
36495,52846
36495,52453
36888,52453
" /> 
<polyline style="fill-rule:evenodd;"
points="35904,52453
35904,52846
35511,52846
35511,52453
35904,52453
" /> 
<polyline style="fill-rule:evenodd;"
points="40138,60353
40138,60746
39745,60746
39745,60353
40138,60353
" /> 
<polyline style="fill-rule:evenodd;"
points="39154,60353
39154,60746
38761,60746
38761,60353
39154,60353
" /> 
<polyline style="fill-rule:evenodd;"
points="42054,28853
42054,29246
41661,29246
41661,28853
42054,28853
" /> 
<polyline style="fill-rule:evenodd;"
points="43038,28853
43038,29246
42645,29246
42645,28853
43038,28853
" /> 
<polyline style="fill-rule:evenodd;"
points="45704,36653
45704,37046
45311,37046
45311,36653
45704,36653
" /> 
<polyline style="fill-rule:evenodd;"
points="46688,36653
46688,37046
46295,37046
46295,36653
46688,36653
" /> 
<polyline style="fill-rule:evenodd;"
points="48738,44553
48738,44946
48345,44946
48345,44553
48738,44553
" /> 
<polyline style="fill-rule:evenodd;"
points="47754,44553
47754,44946
47361,44946
47361,44553
47754,44553
" /> 
<polyline style="fill-rule:evenodd;"
points="44588,52503
44588,52896
44195,52896
44195,52503
44588,52503
" /> 
<polyline style="fill-rule:evenodd;"
points="43604,52503
43604,52896
43211,52896
43211,52503
43604,52503
" /> 
<polyline style="fill-rule:evenodd;"
points="50888,28703
50888,29096
50495,29096
50495,28703
50888,28703
" /> 
<polyline style="fill-rule:evenodd;"
points="49904,28703
49904,29096
49511,29096
49511,28703
49904,28703
" /> 
<polyline style="fill-rule:evenodd;"
points="53554,36653
53554,37046
53161,37046
53161,36653
53554,36653
" /> 
<polyline style="fill-rule:evenodd;"
points="54538,36653
54538,37046
54145,37046
54145,36653
54538,36653
" /> 
<polyline style="fill-rule:evenodd;"
points="56588,44553
56588,44946
56195,44946
56195,44553
56588,44553
" /> 
<polyline style="fill-rule:evenodd;"
points="55604,44553
55604,44946
55211,44946
55211,44553
55604,44553
" /> 
<polyline style="fill-rule:evenodd;"
points="52688,52503
52688,52896
52295,52896
52295,52503
52688,52503
" /> 
<polyline style="fill-rule:evenodd;"
points="51704,52503
51704,52896
51311,52896
51311,52503
51704,52503
" /> 
<polyline style="fill-rule:evenodd;"
points="58638,28603
58638,28996
58245,28996
58245,28603
58638,28603
" /> 
<polyline style="fill-rule:evenodd;"
points="57654,28603
57654,28996
57261,28996
57261,28603
57654,28603
" /> 
<polyline style="fill-rule:evenodd;"
points="61404,36603
61404,36996
61011,36996
61011,36603
61404,36603
" /> 
<polyline style="fill-rule:evenodd;"
points="62388,36603
62388,36996
61995,36996
61995,36603
62388,36603
" /> 
<polyline style="fill-rule:evenodd;"
points="64438,44553
64438,44946
64045,44946
64045,44553
64438,44553
" /> 
<polyline style="fill-rule:evenodd;"
points="63454,44553
63454,44946
63061,44946
63061,44553
63454,44553
" /> 
<polyline style="fill-rule:evenodd;"
points="60388,52553
60388,52946
59995,52946
59995,52553
60388,52553
" /> 
<polyline style="fill-rule:evenodd;"
points="59404,52553
59404,52946
59011,52946
59011,52553
59404,52553
" /> 
<polyline style="fill-rule:evenodd;"
points="66638,28653
66638,29046
66245,29046
66245,28653
66638,28653
" /> 
<polyline style="fill-rule:evenodd;"
points="65654,28653
65654,29046
65261,29046
65261,28653
65654,28653
" /> 
<polyline style="fill-rule:evenodd;"
points="69404,36603
69404,36996
69011,36996
69011,36603
69404,36603
" /> 
<polyline style="fill-rule:evenodd;"
points="70388,36603
70388,36996
69995,36996
69995,36603
70388,36603
" /> 
<polyline style="fill-rule:evenodd;"
points="71504,44553
71504,44946
71111,44946
71111,44553
71504,44553
" /> 
<polyline style="fill-rule:evenodd;"
points="72488,44553
72488,44946
72095,44946
72095,44553
72488,44553
" /> 
<polyline style="fill-rule:evenodd;"
points="68388,52553
68388,52946
67995,52946
67995,52553
68388,52553
" /> 
<polyline style="fill-rule:evenodd;"
points="67404,52553
67404,52946
67011,52946
67011,52553
67404,52553
" /> 
<polyline style="fill-rule:evenodd;"
points="67604,60353
67604,60746
67211,60746
67211,60353
67604,60353
" /> 
<polyline style="fill-rule:evenodd;"
points="68588,60353
68588,60746
68195,60746
68195,60353
68588,60353
" /> 
<polyline style="fill-rule:evenodd;"
points="74388,28603
74388,28996
73995,28996
73995,28603
74388,28603
" /> 
<polyline style="fill-rule:evenodd;"
points="73404,28603
73404,28996
73011,28996
73011,28603
73404,28603
" /> 
<polyline style="fill-rule:evenodd;"
points="77154,36653
77154,37046
76761,37046
76761,36653
77154,36653
" /> 
<polyline style="fill-rule:evenodd;"
points="78138,36653
78138,37046
77745,37046
77745,36653
78138,36653
" /> 
<polyline style="fill-rule:evenodd;"
points="79254,44503
79254,44896
78861,44896
78861,44503
79254,44503
" /> 
<polyline style="fill-rule:evenodd;"
points="80238,44503
80238,44896
79845,44896
79845,44503
80238,44503
" /> 
<polyline style="fill-rule:evenodd;"
points="76188,52553
76188,52946
75795,52946
75795,52553
76188,52553
" /> 
<polyline style="fill-rule:evenodd;"
points="75204,52553
75204,52946
74811,52946
74811,52553
75204,52553
" /> 
<polyline style="fill-rule:evenodd;"
points="82438,28603
82438,28996
82045,28996
82045,28603
82438,28603
" /> 
<polyline style="fill-rule:evenodd;"
points="81454,28603
81454,28996
81061,28996
81061,28603
81454,28603
" /> 
<polyline style="fill-rule:evenodd;"
points="85054,36653
85054,37046
84661,37046
84661,36653
85054,36653
" /> 
<polyline style="fill-rule:evenodd;"
points="86038,36653
86038,37046
85645,37046
85645,36653
86038,36653
" /> 
<polyline style="fill-rule:evenodd;"
points="87204,44503
87204,44896
86811,44896
86811,44503
87204,44503
" /> 
<polyline style="fill-rule:evenodd;"
points="88188,44503
88188,44896
87795,44896
87795,44503
88188,44503
" /> 
<polyline style="fill-rule:evenodd;"
points="84288,52503
84288,52896
83895,52896
83895,52503
84288,52503
" /> 
<polyline style="fill-rule:evenodd;"
points="83304,52503
83304,52896
82911,52896
82911,52503
83304,52503
" /> 
<polyline style="fill-rule:evenodd;"
points="89354,28653
89354,29046
88961,29046
88961,28653
89354,28653
" /> 
<polyline style="fill-rule:evenodd;"
points="90338,28653
90338,29046
89945,29046
89945,28653
90338,28653
" /> 
<polyline style="fill-rule:evenodd;"
points="93004,36653
93004,37046
92611,37046
92611,36653
93004,36653
" /> 
<polyline style="fill-rule:evenodd;"
points="93988,36653
93988,37046
93595,37046
93595,36653
93988,36653
" /> 
<polyline style="fill-rule:evenodd;"
points="95054,44553
95054,44946
94661,44946
94661,44553
95054,44553
" /> 
<polyline style="fill-rule:evenodd;"
points="96038,44553
96038,44946
95645,44946
95645,44553
96038,44553
" /> 
<polyline style="fill-rule:evenodd;"
points="91054,52453
91054,52846
90661,52846
90661,52453
91054,52453
" /> 
<polyline style="fill-rule:evenodd;"
points="92038,52453
92038,52846
91645,52846
91645,52453
92038,52453
" /> 
<polyline style="fill-rule:evenodd;"
points="98188,28603
98188,28996
97795,28996
97795,28603
98188,28603
" /> 
<polyline style="fill-rule:evenodd;"
points="97204,28603
97204,28996
96811,28996
96811,28603
97204,28603
" /> 
<polyline style="fill-rule:evenodd;"
points="101988,36603
101988,36996
101595,36996
101595,36603
101988,36603
" /> 
<polyline style="fill-rule:evenodd;"
points="101004,36603
101004,36996
100611,36996
100611,36603
101004,36603
" /> 
<polyline style="fill-rule:evenodd;"
points="103054,44503
103054,44896
102661,44896
102661,44503
103054,44503
" /> 
<polyline style="fill-rule:evenodd;"
points="104038,44503
104038,44896
103645,44896
103645,44503
104038,44503
" /> 
<polyline style="fill-rule:evenodd;"
points="98954,52453
98954,52846
98561,52846
98561,52453
98954,52453
" /> 
<polyline style="fill-rule:evenodd;"
points="99938,52453
99938,52846
99545,52846
99545,52453
99938,52453
" /> 
<polyline style="fill-rule:evenodd;"
points="96254,60303
96254,60696
95861,60696
95861,60303
96254,60303
" /> 
<polyline style="fill-rule:evenodd;"
points="97238,60303
97238,60696
96845,60696
96845,60303
97238,60303
" /> 
<polyline style="fill-rule:evenodd;"
points="105938,28603
105938,28996
105545,28996
105545,28603
105938,28603
" /> 
<polyline style="fill-rule:evenodd;"
points="104954,28603
104954,28996
104561,28996
104561,28603
104954,28603
" /> 
<polyline style="fill-rule:evenodd;"
points="109788,36603
109788,36996
109395,36996
109395,36603
109788,36603
" /> 
<polyline style="fill-rule:evenodd;"
points="108804,36603
108804,36996
108411,36996
108411,36603
108804,36603
" /> 
<polyline style="fill-rule:evenodd;"
points="110954,44453
110954,44846
110561,44846
110561,44453
110954,44453
" /> 
<polyline style="fill-rule:evenodd;"
points="111938,44453
111938,44846
111545,44846
111545,44453
111938,44453
" /> 
<polyline style="fill-rule:evenodd;"
points="106854,52403
106854,52796
106461,52796
106461,52403
106854,52403
" /> 
<polyline style="fill-rule:evenodd;"
points="107838,52403
107838,52796
107445,52796
107445,52403
107838,52403
" /> 
<polyline style="fill-rule:evenodd;"
points="105054,60353
105054,60746
104661,60746
104661,60353
105054,60353
" /> 
<polyline style="fill-rule:evenodd;"
points="106038,60353
106038,60746
105645,60746
105645,60353
106038,60353
" /> 
<polyline style="fill-rule:evenodd;"
points="113838,28553
113838,28946
113445,28946
113445,28553
113838,28553
" /> 
<polyline style="fill-rule:evenodd;"
points="112854,28553
112854,28946
112461,28946
112461,28553
112854,28553
" /> 
<polyline style="fill-rule:evenodd;"
points="117888,36603
117888,36996
117495,36996
117495,36603
117888,36603
" /> 
<polyline style="fill-rule:evenodd;"
points="116904,36603
116904,36996
116511,36996
116511,36603
116904,36603
" /> 
<polyline style="fill-rule:evenodd;"
points="123804,44453
123804,44846
123411,44846
123411,44453
123804,44453
" /> 
<polyline style="fill-rule:evenodd;"
points="124788,44453
124788,44846
124395,44846
124395,44453
124788,44453
" /> 
<polyline style="fill-rule:evenodd;"
points="114704,52403
114704,52796
114311,52796
114311,52403
114704,52403
" /> 
<polyline style="fill-rule:evenodd;"
points="115688,52403
115688,52796
115295,52796
115295,52403
115688,52403
" /> 
<polyline style="fill-rule:evenodd;"
points="113004,60353
113004,60746
112611,60746
112611,60353
113004,60353
" /> 
<polyline style="fill-rule:evenodd;"
points="113988,60353
113988,60746
113595,60746
113595,60353
113988,60353
" /> 
<polyline style="fill-rule:evenodd;"
points="125438,28653
125438,29046
125045,29046
125045,28653
125438,28653
" /> 
<polyline style="fill-rule:evenodd;"
points="124454,28653
124454,29046
124061,29046
124061,28653
124454,28653
" /> 
<polyline style="fill-rule:evenodd;"
points="127338,36553
127338,36946
126945,36946
126945,36553
127338,36553
" /> 
<polyline style="fill-rule:evenodd;"
points="126354,36553
126354,36946
125961,36946
125961,36553
126354,36553
" /> 
<polyline style="fill-rule:evenodd;"
points="126538,52353
126538,52746
126145,52746
126145,52353
126538,52353
" /> 
<polyline style="fill-rule:evenodd;"
points="125554,52353
125554,52746
125161,52746
125161,52353
125554,52353
" /> 
<polyline style="fill-rule:evenodd;"
points="121054,60303
121054,60696
120661,60696
120661,60303
121054,60303
" /> 
<polyline style="fill-rule:evenodd;"
points="122038,60303
122038,60696
121645,60696
121645,60303
122038,60303
" /> 
</g> 
</svg>
